<svg xmlns="http://www.w3.org/2000/svg" data-name="Layer 1" width="888" height="710.80704" viewBox="0 0 888 710.80704" xmlns:xlink="http://www.w3.org/1999/xlink"><title>programmer</title><path d="M565.39768,756.55065q-1.24506,2.73-2.73,5.34c-.32.56-.64,1.11-.97,1.66-.66005,1.14-1.34,2.25-2.03,3.36-.14.22-.27.45-.41.67-15.14,24.19-36.93994,42.51-62.62,51.85-5.85,2.13-11.91992,3.81-18.14,5.01-.43.08-.84.17-1.27.25-3.22.6-6.5,1.09-9.81006,1.47-6.25.74-12.67,1.11-19.22.99-1.14-.02-2.29-.06-3.45-.11-.56-.03-1.13-.05-1.7-.08-2.49-.13-5.01-.35-7.55-.68-8.37-.99-16.9-2.82-25.46-5.58-.44-.14-.88995-.29-1.33-.45A151.88034,151.88034,0,0,1,359.397,779.596a174.05719,174.05719,0,0,1-19.79-15.69c-.78-.69-1.54-1.39-2.3-2.09-.25-.23-.5-.47-.75-.71a157.666,157.666,0,0,1-13.29-14.17,160.955,160.955,0,0,1-20.3-30.52,167.76638,167.76638,0,0,1-13.47-33.51c-.02-.07-.04-.13-.05-.2a169.14192,169.14192,0,0,1-4.42-20.01c0-.07-.01-.14-.02-.21-.47-2.43-.88-4.87-1.24-7.32,0-.18-.03-.35-.05-.53-.35-2.33-.65-4.67-.89-7.02-.04-.34-.08-.69-.12-1.03-.42005-4.11-.71-8.26-.86-12.44v-.08c0-.18-.01-.37-.01-.56a166.14509,166.14509,0,0,1,6.22-52.18,168.01066,168.01066,0,0,1,19.86-44.79c.42-.68.84-1.34,1.28-2a167.02422,167.02422,0,0,1,22.89-29.21c.78-.82,1.58-1.64,2.38-2.45.22-.23.44-.45.67-.67.49-.5.98-1,1.48-1.48a169.91551,169.91551,0,0,1,27.14-21.4,166.10872,166.10872,0,0,1,27.36-13.63c.66-.26,1.33-.52,2-.78,47.86-18.19,103.64-18.37,152.08.29.98.38,1.97.76,2.95,1.16,16.46006,6.67,31.88995,15.58,45.92,26.52a167.67723,167.67723,0,0,1,22.09,20.26c.76.82,1.5,1.64,2.24,2.47a170.80716,170.80716,0,0,1,21,28.39c.45.72.9,1.45,1.33,2.18a166.92277,166.92277,0,0,1,16.59,36.48Z" transform="translate(-156 -94.59648)" fill="#f0f0f0"/><path d="M603.96765,469.14648l-29.23,112.87005-67.97,12.42-22.03-117.06,53.21-24.23Z" transform="translate(-156 -94.59648)" fill="#2f2e41"/><circle cx="368.86768" cy="172.25" r="69.68" fill="#ffb8b8"/><path d="M437.74768,364.68652l20.02,10.01v33.35l33.35,8.34,23.35,59.71-28.02-1.67-31.69-48.37-5-38.04Z" transform="translate(-156 -94.59648)" fill="#ffb8b8"/><path d="M685.14768,512.82648l25.44-14.02,43.71,64.39s8.34,90.1-5.84,97.28-111.54,22.19-111.54,22.19l-3.34-27.69,71.76-16.68-11.68-48.37Z" transform="translate(-156 -94.59648)" fill="#2f2e41"/><path d="M341.21765,763.55652l-16.67-5.84s-23.35-9.17-23.35-25.01c0,0-9.18-56.37,5.84-60.54s28.02-5.01,28.02-5.01,4.17,9.17,12.51,10.01,39.2,1.67,39.2,1.67l10.84,68.05-35.03,10.84Z" transform="translate(-156 -94.59648)" fill="#2f2e41"/><path d="M585.96765,763.55652l-16.67-5.84s-23.35-9.17-23.35-25.01c0,0-9.18-56.37,5.84-60.54s28.02-5.01,28.02-5.01,4.17,9.17,12.51,10.01,39.2,1.67,39.2,1.67l10.84,68.05-35.03,10.84Z" transform="translate(-156 -94.59648)" fill="#2f2e41"/><path d="M467.94768,512.82648l-39.87-13.18s-10.84,90.1-10.84,95.11-2.5,60.54-2.5,60.54l-7.51,95.11,31.69-.83,15.85-110.71,9.17-80.1Z" transform="translate(-156 -94.59648)" fill="#2f2e41"/><path d="M689.31765,499.73648l-46.55-12.35-8.34,95.11s-15.01,69.72-15.01,75.56,0,66.39,0,66.39l31.69,3.34,22.19-95.11,15.01-80.1Z" transform="translate(-156 -94.59648)" fill="#2f2e41"/><path d="M683.47768,485.72652l-17.51-5.84s-45.05-5.01-50.06,0-33.35,13.34-33.35,13.34l-39.2-4.17s-38.37-5.01-43.38,0-28.02,11.68-28.02,11.68l-5,8.34,15.84,95.11s6.67,60.54,11.68,62.21,55.9,7.5,55.9,7.5l3.34-67.22,8.34-60.54,11.67,60.54,8.34,66.38s50.89,5.84,55.06,0,25.85-95.11,25.85-95.11l10.01-75.56Z" transform="translate(-156 -94.59648)" fill="#575a89"/><path d="M345.38766,750.47652s-5-20.02-15.01-20.02-30.52,5.84-30.52,10.01,1.67,15.84,1.67,15.84-15.01,10.84-10.01,14.18,55.9,15.84,70.08,10.84,19.19-10.01,19.19-10.01-1.67-10.84-10.84-10.84-15.01-5-15.01-5S349.55765,760.48648,345.38766,750.47652Z" transform="translate(-156 -94.59648)" fill="#2f2e41"/><path d="M590.13766,750.47652s-5-20.02-15.01-20.02-30.52,5.84-30.52,10.01,1.67,15.84,1.67,15.84-15.01,10.84-10.01,14.18,55.9,15.84,70.08,10.84,19.19-10.01,19.19-10.01-1.67-10.84-10.84-10.84-15.01-5-15.01-5S594.30765,760.48648,590.13766,750.47652Z" transform="translate(-156 -94.59648)" fill="#2f2e41"/><path d="M544.24768,281.11652c-3.47,0-6.94-.09-10.4-.26-35.11-1.74-70.53-15.13-99.42-37.68-37.67-29.42-61.76-72.49-62.04-111.04-.14-19.68,6.29-37.75,18.62-52.28,11.16-13.15,26.81-22.9,45.28-28.2,17.09-4.9,49.4-8.82,91.46.39,59.42,13.01,106.62,41.63,132.59,80.43,14.6,21.82,21.78,44.53,20.77,65.69-1.97,41.21-28.43,77.61-70.38,96.92C587.60766,306.35648,566.02768,311.11652,544.24768,281.11652Z" transform="translate(-156 -94.59648)" fill="#2f2e41"/><ellipse cx="372.86768" cy="164.75" rx="8" ry="13" fill="#ffb8b8"/><ellipse cx="428.86768" cy="164.75" rx="8" ry="13" fill="#ffb8b8"/><path d="M884.39768,805.40352h-727a1,1,0,0,1,0-2h727a1,1,0,0,1,0,2Z" transform="translate(-156 -94.59648)" fill="#3f3d56"/><polygon points="487.368 225 440.368 225 440.368 0 516.368 0 516.368 195.769 487.368 225" fill="#f0f0f0"/><polygon points="454.368 60 441.368 60 441.368 0 454.368 0 454.368 60" opacity="0.1"/><polygon points="454.368 152 441.368 152 441.368 92 454.368 92 454.368 152" opacity="0.1"/><polygon points="487.368 225 440.368 225 440.368 212 474.368 212 487.368 225" opacity="0.1"/><rect x="444.36768" y="12" width="68" height="32" fill="#f0f0f0"/><rect x="693.36768" y="271" width="68" height="32" fill="#f0f0f0"/><rect x="693.36768" y="324" width="68" height="32" fill="#f0f0f0"/><rect x="444.36768" y="65" width="68" height="32" fill="#f0f0f0"/><rect x="444.36768" y="118" width="68" height="32" fill="#f0f0f0"/><rect x="444.36768" y="171" width="68" height="32" fill="#f0f0f0"/><rect x="444.36768" y="12" width="68" height="32" fill="#ffc200"/><rect x="444.36768" y="65" width="68" height="32" fill="#ffc200"/><rect x="444.36768" y="118" width="68" height="32" fill="#ffc200"/><rect x="444.36768" y="171" width="68" height="32" fill="#ffc200"/><path d="M668.36768,138.59648h-68v-32h68Zm-66-2h64v-28h-64Z" transform="translate(-156 -94.59648)" fill="#3f3d56"/><path d="M668.36768,191.59648h-68v-32h68Zm-66-2h64v-28h-64Z" transform="translate(-156 -94.59648)" fill="#3f3d56"/><path d="M668.36768,244.59648h-68v-32h68Zm-66-2h64v-28h-64Z" transform="translate(-156 -94.59648)" fill="#3f3d56"/><path d="M668.36768,297.59648h-68v-32h68Zm-66-2h64v-28h-64Z" transform="translate(-156 -94.59648)" fill="#3f3d56"/><rect x="693.36768" y="271" width="68" height="32" fill="#ffc200"/><rect x="693.36768" y="324" width="68" height="32" fill="#ffc200"/><path d="M917.36768,397.59648h-68v-32h68Zm-66-2h64v-28h-64Z" transform="translate(-156 -94.59648)" fill="#3f3d56"/><path d="M917.36768,450.59648h-68v-32h68Zm-66-2h64v-28h-64Z" transform="translate(-156 -94.59648)" fill="#3f3d56"/></svg>
