<?xml version="1.0" encoding="utf-8"?>
<!-- Generator: Adobe Illustrator 27.5.0, SVG Export Plug-In . SVG Version: 6.00 Build 0)  -->
<svg version="1.1" xmlns="http://www.w3.org/2000/svg" xmlns:xlink="http://www.w3.org/1999/xlink" x="0px" y="0px"
	 viewBox="0 0 750 500" style="enable-background:new 0 0 750 500;" xml:space="preserve">
<g id="Background">
	<g>
		<g>
			<g>
				<rect style="fill:#FAD34A;" width="750" height="500"/>
				<rect style="fill:#F7E094;" width="262.924" height="500"/>
				<rect y="390.759" style="fill:#C19A2D;" width="750" height="109.241"/>
				<g>
					<polygon style="fill:#FAD34A;" points="750,469.723 740.544,481.313 742.17,481.313 750,471.715 					"/>
					<polygon style="fill:#FAD34A;" points="726.924,500 741.755,481.822 740.129,481.822 725.299,500 					"/>
					<polygon style="fill:#FAD34A;" points="508.763,500 543.324,481.822 542.134,481.822 507.573,500 					"/>
					<polygon style="fill:#FAD34A;" points="601.362,451.295 544.292,481.313 543.102,481.313 600.172,451.295 					"/>
					<polygon style="fill:#FAD34A;" points="633.06,433.996 634.25,433.996 602.329,450.786 601.139,450.786 					"/>
					<polygon style="fill:#FAD34A;" points="707.368,394.912 709.231,394.558 688.098,405.674 686.907,405.674 					"/>
					<polygon style="fill:#FAD34A;" points="655.308,422.294 670.463,414.323 671.654,414.323 656.498,422.294 					"/>
					<polygon style="fill:#FAD34A;" points="655.531,422.803 635.217,433.488 634.027,433.488 654.341,422.803 					"/>
					<polygon style="fill:#FAD34A;" points="671.431,413.814 685.94,406.182 687.13,406.182 672.621,413.814 					"/>
					<polygon style="fill:#FAD34A;" points="487.799,433.996 437.656,450.786 436.758,450.786 486.901,433.996 					"/>
					<polygon style="fill:#FAD34A;" points="521.85,422.294 545.657,414.323 546.555,414.323 522.748,422.294 					"/>
					<polygon style="fill:#FAD34A;" points="520.33,422.803 521.228,422.803 489.319,433.488 488.421,433.488 					"/>
					<polygon style="fill:#FAD34A;" points="436.136,451.295 346.486,481.313 345.588,481.313 435.238,451.295 					"/>
					<polygon style="fill:#FAD34A;" points="290.675,500 344.966,481.822 344.068,481.822 289.777,500 					"/>
					<polygon style="fill:#FAD34A;" points="603.923,394.813 605.29,394.656 572.387,405.674 571.489,405.674 					"/>
					<polygon style="fill:#FAD34A;" points="547.177,413.814 569.969,406.182 570.867,406.182 548.075,413.814 					"/>
					<polygon style="fill:#FAD34A;" points="341.496,433.996 273.129,450.786 272.23,450.786 340.596,433.996 					"/>
					<polygon style="fill:#FAD34A;" points="343.568,433.488 342.668,433.488 386.173,422.803 387.073,422.803 					"/>
					<polygon style="fill:#FAD34A;" points="422.776,413.814 453.852,406.182 454.752,406.182 423.676,413.814 					"/>
					<polygon style="fill:#FAD34A;" points="500.785,394.656 501.046,394.813 456.824,405.674 455.924,405.674 					"/>
					<polygon style="fill:#FAD34A;" points="388.245,422.294 420.705,414.323 421.605,414.323 389.145,422.294 					"/>
					<polygon style="fill:#FAD34A;" points="271.058,451.295 148.827,481.313 147.927,481.313 270.158,451.295 					"/>
					<polygon style="fill:#FAD34A;" points="72.734,500 146.755,481.822 145.855,481.822 71.834,500 					"/>
					<polygon style="fill:#FAD34A;" points="253.062,422.803 197.96,433.488 196.77,433.488 251.872,422.803 					"/>
					<polygon style="fill:#FAD34A;" points="397.54,394.558 396.906,394.912 341.404,405.674 340.214,405.674 					"/>
					<polygon style="fill:#FAD34A;" points="298.231,413.814 337.59,406.182 338.78,406.182 299.421,413.814 					"/>
					<polygon style="fill:#FAD34A;" points="254.496,422.294 295.607,414.323 296.797,414.323 255.686,422.294 					"/>
					<polygon style="fill:#FAD34A;" points="0,471.872 106.122,451.295 104.933,451.295 0,471.641 					"/>
					<polygon style="fill:#FAD34A;" points="108.746,450.786 107.556,450.786 194.146,433.996 195.336,433.996 					"/>
					<polygon style="fill:#FAD34A;" points="173.615,413.814 221.257,406.182 222.883,406.182 175.241,413.814 					"/>
					<polygon style="fill:#FAD34A;" points="0,441.886 49.25,433.996 47.624,433.996 0,441.625 					"/>
					<polygon style="fill:#FAD34A;" points="294.072,394.518 292.993,394.952 226.059,405.674 224.433,405.674 					"/>
					<polygon style="fill:#FAD34A;" points="122.301,422.294 120.675,422.294 170.439,414.323 172.065,414.323 					"/>
					<polygon style="fill:#FAD34A;" points="52.427,433.488 50.8,433.488 117.499,422.803 119.125,422.803 					"/>
					<polygon style="fill:#FAD34A;" points="48.971,413.814 104.896,406.182 107.009,406.182 51.084,413.814 					"/>
					<polygon style="fill:#FAD34A;" points="190.487,394.502 189.194,394.967 110.738,405.674 108.624,405.674 					"/>
					<polygon style="fill:#FAD34A;" points="0,420.785 47.356,414.323 45.242,414.323 0,420.497 					"/>
					<polygon style="fill:#FAD34A;" points="0,404.818 0,405.13 85.438,394.975 86.858,394.494 					"/>
					<polygon style="fill:#FAD34A;" points="345.588,481.313 344.068,481.822 146.755,481.822 148.827,481.313 					"/>
					<polygon style="fill:#FAD34A;" points="0,481.313 0,481.822 145.855,481.822 147.927,481.313 					"/>
					<polygon style="fill:#FAD34A;" points="740.544,481.313 740.129,481.822 543.324,481.822 544.292,481.313 					"/>
					<polygon style="fill:#FAD34A;" points="750,481.313 742.17,481.313 741.755,481.822 750,481.822 					"/>
					<polygon style="fill:#FAD34A;" points="543.102,481.313 542.134,481.822 344.966,481.822 346.486,481.313 					"/>
					<polygon style="fill:#FAD34A;" points="742.17,481.313 741.755,481.822 740.129,481.822 740.544,481.313 					"/>
					<polygon style="fill:#FAD34A;" points="544.292,481.313 543.324,481.822 542.134,481.822 543.102,481.313 					"/>
					<polygon style="fill:#FAD34A;" points="346.486,481.313 344.966,481.822 344.068,481.822 345.588,481.313 					"/>
					<polygon style="fill:#FAD34A;" points="148.827,481.313 146.755,481.822 145.855,481.822 147.927,481.313 					"/>
					<polygon style="fill:#FAD34A;" points="0,450.786 0,451.295 104.933,451.295 107.556,450.786 					"/>
					<polygon style="fill:#FAD34A;" points="272.23,450.786 270.158,451.295 106.122,451.295 108.746,450.786 					"/>
					<polygon style="fill:#FAD34A;" points="436.758,450.786 435.238,451.295 271.058,451.295 273.129,450.786 					"/>
					<polygon style="fill:#FAD34A;" points="601.139,450.786 600.172,451.295 436.136,451.295 437.656,450.786 					"/>
					<polygon style="fill:#FAD34A;" points="750,450.786 602.329,450.786 601.362,451.295 750,451.295 					"/>
					<polygon style="fill:#FAD34A;" points="602.329,450.786 601.362,451.295 600.172,451.295 601.139,450.786 					"/>
					<polygon style="fill:#FAD34A;" points="437.656,450.786 436.136,451.295 435.238,451.295 436.758,450.786 					"/>
					<polygon style="fill:#FAD34A;" points="273.129,450.786 271.058,451.295 270.158,451.295 272.23,450.786 					"/>
					<polygon style="fill:#FAD34A;" points="108.746,450.786 106.122,451.295 104.932,451.295 107.556,450.786 					"/>
					<polygon style="fill:#FAD34A;" points="488.421,433.488 486.901,433.996 341.496,433.996 343.568,433.488 					"/>
					<polygon style="fill:#FAD34A;" points="750,433.487 635.217,433.487 634.25,433.996 750,433.996 					"/>
					<polygon style="fill:#FAD34A;" points="489.319,433.488 634.027,433.488 633.06,433.996 487.799,433.996 					"/>
					<polygon style="fill:#FAD34A;" points="196.77,433.488 194.146,433.996 49.25,433.996 52.427,433.488 					"/>
					<polygon style="fill:#FAD34A;" points="340.596,433.996 195.336,433.996 197.96,433.488 342.668,433.488 					"/>
					<polygon style="fill:#FAD34A;" points="0,433.487 0,433.996 47.624,433.996 50.8,433.487 					"/>
					<polygon style="fill:#FAD34A;" points="634.027,433.488 635.217,433.488 634.25,433.996 633.06,433.996 					"/>
					<polygon style="fill:#FAD34A;" points="489.319,433.488 487.799,433.996 486.901,433.996 488.421,433.488 					"/>
					<polygon style="fill:#FAD34A;" points="343.568,433.488 341.496,433.996 340.596,433.996 342.668,433.488 					"/>
					<polygon style="fill:#FAD34A;" points="197.96,433.488 195.336,433.996 194.146,433.996 196.77,433.488 					"/>
					<polygon style="fill:#FAD34A;" points="49.25,433.996 47.624,433.996 50.8,433.488 52.427,433.488 					"/>
					<polygon style="fill:#FAD34A;" points="750,422.294 656.498,422.294 655.531,422.803 750,422.803 					"/>
					<polygon style="fill:#FAD34A;" points="253.062,422.803 255.686,422.294 388.245,422.294 386.173,422.803 					"/>
					<polygon style="fill:#FAD34A;" points="251.872,422.803 119.125,422.803 122.301,422.294 254.496,422.294 					"/>
					<polygon style="fill:#FAD34A;" points="655.308,422.294 654.341,422.803 521.228,422.803 522.748,422.294 					"/>
					<polygon style="fill:#FAD34A;" points="387.073,422.803 389.145,422.294 521.85,422.294 520.33,422.803 					"/>
					<polygon style="fill:#FAD34A;" points="0,422.294 0,422.803 117.499,422.803 120.675,422.294 					"/>
					<polygon style="fill:#FAD34A;" points="656.498,422.294 655.531,422.803 654.341,422.803 655.308,422.294 					"/>
					<polygon style="fill:#FAD34A;" points="521.85,422.294 522.748,422.294 521.228,422.803 520.33,422.803 					"/>
					<polygon style="fill:#FAD34A;" points="386.173,422.803 388.245,422.294 389.145,422.294 387.073,422.803 					"/>
					<polygon style="fill:#FAD34A;" points="251.872,422.803 254.496,422.294 255.686,422.294 253.062,422.803 					"/>
					<polygon style="fill:#FAD34A;" points="119.125,422.803 117.499,422.803 120.675,422.294 122.301,422.294 					"/>
					<polygon style="fill:#FAD34A;" points="47.356,414.323 51.084,413.814 173.615,413.814 170.439,414.323 					"/>
					<polygon style="fill:#FAD34A;" points="421.605,414.323 423.676,413.814 547.177,413.814 545.657,414.323 					"/>
					<polygon style="fill:#FAD34A;" points="296.797,414.323 299.421,413.814 422.776,413.814 420.705,414.323 					"/>
					<polygon style="fill:#FAD34A;" points="172.065,414.323 175.241,413.814 298.231,413.814 295.607,414.323 					"/>
					<polygon style="fill:#FAD34A;" points="750,413.814 672.621,413.814 671.654,414.323 750,414.323 					"/>
					<polygon style="fill:#FAD34A;" points="0,413.814 0,414.323 45.242,414.323 48.971,413.814 					"/>
					<polygon style="fill:#FAD34A;" points="546.555,414.323 548.075,413.814 671.431,413.814 670.463,414.323 					"/>
					<polygon style="fill:#FAD34A;" points="670.463,414.323 671.431,413.814 672.621,413.814 671.654,414.323 					"/>
					<polygon style="fill:#FAD34A;" points="545.657,414.323 547.177,413.814 548.075,413.814 546.555,414.323 					"/>
					<polygon style="fill:#FAD34A;" points="420.705,414.323 422.776,413.814 423.676,413.814 421.605,414.323 					"/>
					<polygon style="fill:#FAD34A;" points="295.607,414.323 298.231,413.814 299.421,413.814 296.797,414.323 					"/>
					<polygon style="fill:#FAD34A;" points="170.439,414.323 173.615,413.814 175.241,413.814 172.065,414.323 					"/>
					<polygon style="fill:#FAD34A;" points="45.242,414.323 48.971,413.814 51.084,413.814 47.356,414.323 					"/>
					<polygon style="fill:#FAD34A;" points="107.009,406.182 110.738,405.674 224.433,405.674 221.257,406.182 					"/>
					<polygon style="fill:#FAD34A;" points="0,405.674 0,406.182 104.896,406.182 108.624,405.674 					"/>
					<polygon style="fill:#FAD34A;" points="222.883,406.182 226.059,405.674 340.214,405.674 337.59,406.182 					"/>
					<polygon style="fill:#FAD34A;" points="454.752,406.182 456.824,405.674 571.489,405.674 569.969,406.182 					"/>
					<polygon style="fill:#FAD34A;" points="570.867,406.182 572.387,405.674 686.907,405.674 685.94,406.182 					"/>
					<polygon style="fill:#FAD34A;" points="750,405.674 688.098,405.674 687.13,406.182 750,406.182 					"/>
					<polygon style="fill:#FAD34A;" points="338.78,406.182 341.404,405.674 455.924,405.674 453.852,406.182 					"/>
					<polygon style="fill:#FAD34A;" points="685.94,406.182 686.907,405.674 688.098,405.674 687.13,406.182 					"/>
					<polygon style="fill:#FAD34A;" points="569.969,406.182 571.489,405.674 572.387,405.674 570.867,406.182 					"/>
					<polygon style="fill:#FAD34A;" points="453.852,406.182 455.924,405.674 456.824,405.674 454.752,406.182 					"/>
					<polygon style="fill:#FAD34A;" points="337.59,406.182 340.214,405.674 341.404,405.674 338.78,406.182 					"/>
					<polygon style="fill:#FAD34A;" points="221.257,406.182 224.433,405.674 226.059,405.674 222.883,406.182 					"/>
					<polygon style="fill:#FAD34A;" points="104.896,406.182 108.624,405.674 110.738,405.674 107.009,406.182 					"/>
				</g>
				<path style="fill:#A07A1C;" d="M710.206,394.292c-4.733-40.592-9.536-81.501-23.011-120.443s-36.389-76.264-71.643-101.599
					c-35.254-25.336-84.039-37.061-126.648-24.026c-11.191,3.424-22.259,8.515-34.055,8.005
					c-17.399-0.753-31.224-13.397-41.185-26.37c-9.961-12.973-18.501-27.615-33.054-36.304c-33.62-20.075-78.663,1.062-118.445-4.44
					c-30.101-4.162-54.6-23.18-79.881-38.584c-25.281-15.404-57.167-28.031-85.465-17.829
					C66.03,43.801,53.114,76.762,47.807,106.448c-17.385,97.249,8.207,196.123,33.638,291.901
					c9.275-0.907,18.551-1.814,27.826-2.721L710.206,394.292z"/>
			</g>
			<path style="fill:#DDB63A;" d="M264.071,394.918l446.24-0.996c-4.72-40.61-9.51-81.537-22.95-120.497
				s-36.292-76.298-71.452-101.645c-35.16-25.347-83.815-37.078-126.31-24.036c-11.161,3.425-22.199,8.519-33.964,8.008
				c-17.353-0.753-31.141-13.403-41.075-26.382c-9.934-12.979-18.451-27.627-32.966-36.321
				c-33.36-19.982-77.996,0.844-117.523-4.364V394.918z"/>
		</g>
		<rect x="2" y="387.938" style="fill:#FAD34A;" width="748" height="11.397"/>
	</g>
</g>
<g id="Objects">
	<g>
		<g>
			<g>
				<ellipse style="fill:#A07A1C;" cx="144.405" cy="412.001" rx="131" ry="11.667"/>
			</g>
			<g>
				<ellipse style="fill:#A07A1C;" cx="341.738" cy="468.668" rx="131" ry="11.667"/>
			</g>
			<g>
				<path style="fill:#A07A1C;" d="M688.738,412.001c0,6.443-17.69,27-153,27s-337-20.557-337-27c0-6.443,109.69-11.667,245-11.667
					S688.738,405.558,688.738,412.001z"/>
			</g>
			<g>
				<ellipse style="fill:#A07A1C;" cx="640.905" cy="442.001" rx="65.833" ry="11.667"/>
			</g>
		</g>
		<g>
			<g>
				<path style="fill:#022A44;" d="M491.845,324.604c-4.697,0-9.077-1.17-12.658-3.46c-7.161-4.584-11.483-13.772-12.498-26.572
					c-0.952-12.005,0.363-24.154,1.635-35.904c0.705-6.515,1.435-13.251,1.766-19.874c0.382-7.602,0.294-16.401-3.25-24.024
					c-3.079-6.625-9.98-13.189-18.375-12.95c-0.01,0.001-0.02,0.001-0.03,0.001c-0.538,0-0.982-0.429-0.999-0.971
					c-0.016-0.552,0.418-1.013,0.971-1.029c9.309-0.304,16.893,6.886,20.248,14.106c3.727,8.019,3.827,17.121,3.434,24.967
					c-0.335,6.68-1.067,13.445-1.775,19.989c-1.262,11.657-2.566,23.713-1.629,35.53c0.672,8.474,3.227,19.698,11.582,25.046
					c5.267,3.368,12.489,4.07,19.817,1.92c6.296-1.847,11.904-5.341,18.39-10.019c5.343-3.853,12.659-9.133,20.197-7.124
					c2.795,0.744,5.146,2.397,7.419,3.995c0.976,0.687,1.984,1.396,2.997,2.007c2.989,1.806,7.168,2.972,9.931,0.83
					c2.457-1.903,2.781-5.646,2.893-9.006l1.862-56.116c0.019-0.552,0.492-0.989,1.032-0.966c0.552,0.018,0.984,0.48,0.966,1.033
					l-1.862,56.116c-0.125,3.813-0.523,8.086-3.666,10.52c-3.564,2.76-8.634,1.448-12.188-0.698
					c-1.073-0.648-2.111-1.378-3.114-2.083c-2.229-1.567-4.332-3.047-6.784-3.7c-6.616-1.76-13.493,3.194-18.512,6.814
					c-6.651,4.799-12.428,8.389-18.997,10.316C497.667,324.173,494.697,324.604,491.845,324.604z"/>
			</g>
			<g>
				<path style="fill:#022A44;" d="M548.549,333.584c-1.046,0-2.112-0.044-3.189-0.102c-12.082-0.648-25.556-2.177-32.516-12.18
					c-4.116-5.916-4.761-13.645-5.278-19.854l-4.689-56.317c-0.046-0.55,0.362-1.034,0.913-1.079
					c0.556-0.05,1.034,0.364,1.079,0.913l4.689,56.317c0.524,6.282,1.118,13.403,4.928,18.878
					c6.445,9.263,19.371,10.702,30.981,11.324c4.159,0.223,8.125,0.246,10.962-1.914c4.473-3.407,4.006-10.302,3.217-16.496
					c-2.841-22.297-2.177-44.805,1.975-66.898c0.102-0.543,0.626-0.9,1.167-0.798c0.543,0.102,0.9,0.625,0.798,1.167
					c-4.112,21.888-4.771,44.187-1.955,66.277c0.859,6.748,1.331,14.286-3.989,18.34
					C555.065,333.123,551.916,333.584,548.549,333.584z"/>
			</g>
		</g>
		<g>
			<g>
				<g>
					<g>
						<polygon style="fill:#00A0B3;" points="359.366,37.255 359.366,186.133 441.228,186.133 439.858,32.581 						"/>
					</g>
					<g>
						<polygon style="fill:#106887;" points="437.583,32.713 359.366,88.335 359.366,150.709 440.352,87.951 439.858,32.581 						
							"/>
					</g>
					<g>
						<polygon style="fill:#106887;" points="359.366,37.255 359.366,43.785 369.41,36.672 						"/>
					</g>
					<g>
						<polygon style="fill:#106887;" points="374.997,36.347 359.366,47.571 359.366,52.796 383.652,35.845 						"/>
					</g>
				</g>
			</g>
			<g>
				<g>
					<polygon style="fill:#C1633A;" points="334,103.172 300.738,104.259 300.738,40.501 334,38.568 					"/>
				</g>
				<g>
					<g>
						<path style="fill:#DC8456;" d="M333.514,43.457c-3.726,0.176-7.452,1.336-10.762,3.195c-4.174,2.344-7.717,5.732-10.586,9.537
							c-2.311,3.065-4.249,6.52-4.804,10.24c-0.555,3.718,0.466,7.744,3.28,10.089c2.21,1.842,5.298,2.475,8.25,2.157
							c2.959-0.319,5.803-1.517,8.438-3.005c2.186-1.234,4.256-2.685,6.184-4.31V43.457z"/>
					</g>
					<g>
						<path style="fill:#DC8456;" d="M311.862,46.762c-0.914-2.297-3.98-2.887-6.449-2.242c-1.519,0.397-2.933,1.124-4.36,1.814
							v14.53c3.591-1.983,6.798-4.733,9.21-8.083C311.548,50.997,312.64,48.716,311.862,46.762z"/>
					</g>
					<g>
						<path style="fill:#DC8456;" d="M312.424,83.756c-2.918,1.007-5.529,2.952-7.336,5.462c-1.386,1.925-2.264,4.649-0.91,6.495
							c1.323,1.804,4.067,1.806,6.28,1.159c2.849-0.833,5.491-2.465,7.536-4.659c1.696-1.819,3.018-4.478,1.984-6.644
							c-0.604-1.266-1.931-2.075-3.33-2.315C315.25,83.015,313.788,83.285,312.424,83.756z"/>
					</g>
				</g>
			</g>
		</g>
		<g>
			<g>
				<polygon style="fill:#022A44;" points="581.238,342.335 520.071,338.668 444.738,347.001 525.738,358.001 				"/>
			</g>
			<g>
				<polygon style="fill:#F4EBE8;" points="524.738,431.668 444.738,424.335 444.738,347.001 524.738,351.001 				"/>
			</g>
			<g>
				<polygon style="fill:#C1633A;" points="520.988,427.699 448.488,421.053 448.488,350.97 520.988,354.595 				"/>
			</g>
			<g>
				<polygon style="fill:#022A44;" points="501.071,394.335 501.071,353.599 448.488,350.97 448.488,421.053 520.988,427.699 
					520.988,394.335 				"/>
			</g>
			<g>
				<g>
					<g>
						<path style="fill:#022A44;" d="M519.353,368.918h-27.721c-2.645,13.377-5.7,26.747-9.16,40.091h29.689l3.516-21.462
							C516.902,381.337,518.128,375.128,519.353,368.918z"/>
					</g>
					<g>
						<path style="fill:#C19A2D;" d="M517.009,368.918h-27.721c-2.595,13.124-5.59,26.241-8.969,39.333h29.622l3.392-20.705
							C514.558,381.337,515.784,375.128,517.009,368.918z"/>
					</g>
					<g>
						<path style="fill:#022A44;" d="M513.885,368.918h-27.721c-2.645,13.377-5.7,26.747-9.16,40.091h29.689l3.516-21.462
							C511.434,381.337,512.66,375.128,513.885,368.918z"/>
					</g>
				</g>
				<g>
					<path style="fill:#C19A2D;" d="M511.368,368.918h-27.715c-2.578,13.124-5.565,26.24-8.928,39.333h29.547l3.255-19.871
						C508.807,381.893,510.087,375.405,511.368,368.918z"/>
				</g>
			</g>
			<g>
				<polygon style="fill:#F4EBE8;" points="524.738,431.668 581.238,409.501 581.238,342.335 524.738,351.001 				"/>
			</g>
			<g>
				<path style="fill:#F7E094;" d="M551.943,409.204c-4.202-2.461-6.37-8.74-3.408-12.998
					c10.842-15.587,22.016-30.954,32.703-46.648v-7.224l-56.5,8.667v80.667l21.199-8.317c2.729-4.401,5.444-8.811,8.149-13.226
					C553.365,409.913,552.648,409.617,551.943,409.204z"/>
			</g>
			<g>
				<path style="fill:#F7E094;" d="M575.311,411.827l5.927-2.325v-7.479C579.271,405.295,577.295,408.563,575.311,411.827z"/>
			</g>
		</g>
		<g>
			<g>
				<g>
					<rect x="119.343" y="85.603" style="fill:#022A44;" width="110.107" height="326.423"/>
				</g>
				<g>
					<g>
						<rect x="126.676" y="85.603" style="fill:#F4EBE8;" width="110.107" height="326.423"/>
					</g>
					<g>
						<g>
							<g>
								<path style="fill:#022A44;" d="M231.905,170.001h-99v-75h99V170.001z M133.905,169.001h97v-73h-97V169.001z"/>
							</g>
							<g>
								<path style="fill:#022A44;" d="M231.905,247.501h-99v-75h99V247.501z M133.905,246.501h97v-73h-97V246.501z"/>
							</g>
							<g>
								<path style="fill:#022A44;" d="M231.905,325.001h-99v-75h99V325.001z M133.905,324.001h97v-73h-97V324.001z"/>
							</g>
							<g>
								<path style="fill:#022A44;" d="M231.905,402.501h-99v-75h99V402.501z M133.905,401.501h97v-73h-97V401.501z"/>
							</g>
						</g>
						<g>
							<g>
								<polygon style="fill:#022A44;" points="227.675,147.001 231.738,147.001 231.738,119.668 227.619,124.553 								"/>
							</g>
							<g>
								<polygon style="fill:#022A44;" points="227.675,226.001 231.738,226.001 231.738,198.668 227.619,203.553 								"/>
							</g>
							<g>
								<polygon style="fill:#022A44;" points="227.675,304.335 231.738,304.335 231.738,277.001 227.619,281.887 								"/>
							</g>
							<g>
								<polygon style="fill:#022A44;" points="227.675,384.335 231.738,384.335 231.738,357.001 227.619,361.887 								"/>
							</g>
						</g>
					</g>
				</g>
			</g>
			<g>
				<g>
					<path style="fill:#00A0B3;" d="M210.622,99.527l0.255,0.582c0.517,1.18,1.995,1.576,3.033,0.813l0.512-0.376
						c1.412-1.038,3.383,0.1,3.19,1.842l-0.07,0.632c-0.142,1.281,0.94,2.362,2.221,2.22l0.631-0.07
						c1.742-0.193,2.88,1.779,1.842,3.19l-0.376,0.512c-0.763,1.038-0.367,2.516,0.813,3.033l0.582,0.255
						c1.605,0.704,1.605,2.98,0,3.684l-0.582,0.255c-1.18,0.517-1.576,1.995-0.813,3.033l0.376,0.512
						c1.038,1.412-0.1,3.383-1.842,3.19l-0.631-0.07c-1.281-0.142-2.363,0.94-2.221,2.221l0.07,0.631
						c0.193,1.742-1.778,2.88-3.19,1.842l-0.512-0.376c-1.038-0.763-2.516-0.367-3.033,0.813l-0.255,0.582
						c-0.704,1.605-2.98,1.605-3.684,0l-0.255-0.582c-0.517-1.18-1.995-1.576-3.033-0.813l-0.512,0.376
						c-1.412,1.038-3.383-0.1-3.19-1.842l0.07-0.631c0.142-1.281-0.94-2.363-2.22-2.221l-0.632,0.07
						c-1.742,0.193-2.88-1.778-1.842-3.19l0.376-0.512c0.763-1.038,0.367-2.516-0.813-3.033l-0.582-0.255
						c-1.605-0.704-1.605-2.98,0-3.684l0.582-0.255c1.18-0.517,1.576-1.995,0.813-3.033l-0.376-0.512
						c-1.038-1.412,0.1-3.383,1.842-3.19l0.632,0.07c1.281,0.142,2.362-0.94,2.22-2.22l-0.07-0.632
						c-0.193-1.742,1.779-2.88,3.19-1.842l0.512,0.376c1.038,0.763,2.516,0.367,3.033-0.813l0.255-0.582
						C207.641,97.922,209.918,97.922,210.622,99.527z"/>
				</g>
				<g>
					<path style="fill:#FAD34A;" d="M223.254,112.159l-0.582-0.255c-1.18-0.517-1.576-1.995-0.813-3.033l0.376-0.512
						c0.471-0.64,0.478-1.387,0.2-2.004c-9.058,3.376-18.134,6.701-27.247,9.919c0.935,0.62,1.203,1.916,0.511,2.857l-0.376,0.512
						c-1.038,1.412,0.1,3.383,1.842,3.19l0.632-0.07c0.038-0.004,0.075,0.003,0.113,0.001c6.747-2.3,13.505-4.564,20.306-6.69
						c2.07-0.647,4.147-1.271,6.22-1.909C224.499,113.367,224.116,112.537,223.254,112.159z"/>
				</g>
			</g>
			<g>
				<g>
					<g>
						<path style="fill:#00A0B3;" d="M176.071,366.001h-29.333c-3.314,0-6-2.686-6-6v-22.333c0-3.314,2.686-6,6-6h29.333
							c3.314,0,6,2.686,6,6v22.333C182.071,363.315,179.385,366.001,176.071,366.001z"/>
					</g>
					<g>
						<path style="fill:#022A44;" d="M173.295,362.751h-23.78c-2.686,0-4.864-2.178-4.864-4.864v-18.105
							c0-2.686,2.178-4.864,4.864-4.864h23.78c2.686,0,4.864,2.178,4.864,4.864v18.105
							C178.159,360.573,175.981,362.751,173.295,362.751z"/>
					</g>
					<g>
						<path style="fill:#C1633A;" d="M171.954,337.168c-8.297,3.582-16.265,7.927-23.77,12.962c2.984,3.168,5.968,6.335,8.952,9.502
							c6.663-4.814,13.155-9.865,19.46-15.139C175.049,342.051,173.501,339.609,171.954,337.168z"/>
					</g>
				</g>
				<g>
					<g>
						<path style="fill:#106887;" d="M137.761,119.272c0.374,4.896,2.33,9.856,6.159,12.93c3.641,2.923,8.683,3.835,13.248,2.855
							c4.566-0.98,8.646-3.722,11.695-7.259c3.317-3.847,5.51-8.739,5.735-13.813c0.225-5.074-1.624-10.291-5.3-13.796
							c-5.74-5.473-15.361-5.83-21.997-1.487C140.666,103.044,137.157,111.365,137.761,119.272z"/>
					</g>
					<g>
						<path style="fill:#00A0B3;" d="M140.501,118.723c0.318,4.167,1.983,8.387,5.242,11.004c3.099,2.488,7.389,3.263,11.275,2.43
							c3.885-0.834,7.358-3.168,9.953-6.178c2.823-3.274,4.689-7.437,4.881-11.756c0.191-4.319-1.382-8.758-4.51-11.741
							c-4.885-4.657-13.073-4.962-18.72-1.266C142.973,104.911,139.987,111.993,140.501,118.723z"/>
					</g>
					<g>
						<path style="fill:#F7E094;" d="M144.337,128.369c8.503-3.035,16.999-6.09,25.532-9.04c0.368-0.127,0.737-0.252,1.106-0.379
							c0.5-1.529,0.805-3.117,0.876-4.726c0.191-4.319-1.382-8.758-4.51-11.741c-1.186-1.131-2.569-2-4.06-2.622
							c-6.551,2.033-13.081,4.133-19.573,6.336c-2.389,3.644-3.54,8.157-3.206,12.528
							C140.769,122.235,142.008,125.773,144.337,128.369z"/>
					</g>
					<g>
						
							<rect x="140.256" y="121.377" transform="matrix(0.9456 -0.3252 0.3252 0.9456 -31.1136 57.6127)" style="fill:#C1633A;" width="33.047" height="1"/>
					</g>
					<g>
						
							<rect x="139.599" y="104.626" transform="matrix(0.9412 -0.3378 0.3378 0.9412 -26.5032 57.9634)" style="fill:#C1633A;" width="27.361" height="1"/>
					</g>
				</g>
				<g>
					<g>
						<path style="fill:#DC8456;" d="M201.241,208.68c1.273-6.89,0.141-14.51-4.383-19.86c-3.603-4.261-8.955-6.683-14.358-8.079
							c-10.893-2.816-23.454-1.588-31.884,5.864c-9.253,8.18-11.398,23.118-5.235,33.821c6.162,10.703,19.757,16.352,31.809,13.655
							C189.243,231.384,198.997,220.825,201.241,208.68z"/>
					</g>
					<g>
						<path style="fill:#C1633A;" d="M149.367,225.668h42.777c4.613-4.606,7.911-10.568,9.097-16.988
							c1.273-6.89,0.141-14.509-4.383-19.86c-0.145-0.171-0.309-0.321-0.459-0.486h-47.534c-7.745,8.43-9.234,22.103-3.483,32.092
							C146.486,222.345,147.837,224.093,149.367,225.668z"/>
					</g>
				</g>
				<g>
					<g>
						<path style="fill:#DC8456;" d="M143.517,282.814c22.183-2.837,44.367-5.675,66.55-8.512c0.438-7.2,0.876-14.4,1.314-21.6
							c-23.826,1.974-47.579,4.829-71.193,8.559C141.297,268.445,142.407,275.629,143.517,282.814z"/>
					</g>
					<g>
						<path style="fill:#FAD34A;" d="M149.585,280.102c-1.958,0-3.598-1.281-3.902-3.046l-1.961-11.412
							c-0.154-0.898,0.065-1.81,0.619-2.565c0.616-0.843,1.598-1.413,2.693-1.565c18.773-2.598,37.889-4.669,56.816-6.157
							c1.296-0.113,2.52,0.37,3.348,1.256c0.668,0.715,1.001,1.626,0.938,2.565l-0.768,11.352c-0.118,1.728-1.568,3.138-3.45,3.354
							l-53.835,6.191C149.916,280.092,149.75,280.102,149.585,280.102z M204.195,256.342c-0.088,0-0.176,0.003-0.266,0.01
							c-18.908,1.487-38.004,3.557-56.757,6.151c-0.829,0.115-1.566,0.54-2.023,1.165c-0.392,0.536-0.548,1.177-0.44,1.806
							l1.961,11.412c0.236,1.373,1.704,2.374,3.3,2.193l53.835-6.191c1.403-0.16,2.482-1.182,2.566-2.428l0.768-11.352
							c0.045-0.659-0.193-1.304-0.67-1.814C205.902,256.689,205.074,256.342,204.195,256.342z"/>
					</g>
				</g>
				<g>
					<g>
						<path style="fill:#FAD34A;" d="M225.772,153.558c-27.452-5.091-54.905-10.181-82.357-15.272
							c-1.391,6.202-2.783,12.404-4.174,18.606c25.96,7.528,51.92,15.055,77.88,22.583
							C220.006,170.836,222.889,162.197,225.772,153.558z"/>
					</g>
					<g>
						<g>
							<path style="fill:#DDB63A;" d="M209.171,161.973c4.56-3.058,9.177-6.024,13.832-8.929
								c-5.378-0.997-10.757-1.995-16.135-2.992c-10.017,5.767-19.91,11.741-29.734,17.827l16.102,4.669
								C198.553,168.827,204.075,165.39,209.171,161.973z"/>
						</g>
						<g>
							<path style="fill:#DDB63A;" d="M178.451,144.783c-5.06-0.938-10.12-1.877-15.181-2.815
								c-5.55,3.284-11.015,6.711-16.378,10.296c-2.363,1.58-4.707,3.187-7.046,4.804c4.275,1.24,8.55,2.479,12.825,3.719
								C161.222,155.384,169.802,150.027,178.451,144.783z"/>
						</g>
					</g>
				</g>
			</g>
		</g>
		<g>
			<g>
				<polygon style="fill:#F7E094;" points="670.5,250.267 461.844,240.467 461.844,33.847 670.5,27.792 				"/>
			</g>
			<g>
				<g>
					<g>
						<polygon style="fill:#022A44;" points="670.5,245.6 467.177,235.8 467.177,29.181 670.5,23.125 						"/>
					</g>
					<g>
						<polygon style="fill:#F4EBE8;" points="679.453,30.398 456.803,36.443 456.803,25.318 679.453,18.335 						"/>
					</g>
				</g>
				<g>
					<g>
						<polygon style="fill:#F7E094;" points="652.933,41.505 474.746,45.69 474.746,37.667 652.933,32.944 						"/>
					</g>
					<g>
						<polygon style="fill:#F7E094;" points="652.933,54.347 474.746,57.724 474.746,49.701 652.933,45.786 						"/>
					</g>
					<g>
						<polygon style="fill:#F7E094;" points="652.933,67.188 474.746,69.759 474.746,61.736 652.933,58.627 						"/>
					</g>
					<g>
						<polygon style="fill:#F7E094;" points="652.933,80.03 474.746,81.794 474.746,73.771 652.933,71.469 						"/>
					</g>
					<g>
						<polygon style="fill:#F7E094;" points="652.933,92.872 474.746,93.828 474.746,85.805 652.933,84.311 						"/>
					</g>
					<g>
						<polygon style="fill:#F7E094;" points="652.933,105.713 474.746,105.863 474.746,97.84 652.933,97.152 						"/>
					</g>
					<g>
						<polygon style="fill:#F7E094;" points="652.933,118.555 474.746,117.897 474.746,109.874 652.933,109.994 						"/>
					</g>
					<g>
						<polygon style="fill:#F7E094;" points="652.933,131.397 474.746,129.932 474.746,121.909 652.933,122.836 						"/>
					</g>
					<g>
						<polygon style="fill:#F7E094;" points="652.933,144.238 474.746,141.967 474.746,133.944 652.933,135.677 						"/>
					</g>
					<g>
						<polygon style="fill:#F7E094;" points="652.933,157.08 474.746,154.001 474.746,145.978 652.933,148.519 						"/>
					</g>
					<g>
						<polygon style="fill:#F7E094;" points="652.933,169.922 474.746,166.036 474.746,158.013 652.933,161.361 						"/>
					</g>
					<g>
						<polygon style="fill:#F7E094;" points="652.933,182.763 474.746,178.071 474.746,170.048 652.933,174.202 						"/>
					</g>
					<g>
						<polygon style="fill:#A07A1C;" points="652.933,232.501 474.746,227.001 474.746,182.082 652.933,187.044 						"/>
					</g>
				</g>
				<g>
					<g>
						<path style="fill:#FAD34A;" d="M481.819,45.524l171.114-4.019v-8.561l-178.187,4.723v1.896
							C477.144,41.499,479.492,43.508,481.819,45.524z"/>
					</g>
					<g>
						<path style="fill:#FAD34A;" d="M490.37,52.834c1.83,1.504,3.67,2.995,5.508,4.489l157.056-2.977v-8.561l-166.582,3.661
							C487.689,50.595,489.026,51.73,490.37,52.834z"/>
					</g>
					<g>
						<path style="fill:#FAD34A;" d="M510.704,69.24l142.229-2.052v-8.561l-152.177,2.655
							C504.062,63.948,507.379,66.599,510.704,69.24z"/>
					</g>
					<g>
						<path style="fill:#FAD34A;" d="M526.001,81.286l126.932-1.256v-8.561l-137.178,1.772
							C519.165,75.931,522.579,78.614,526.001,81.286z"/>
					</g>
					<g>
						<path style="fill:#FAD34A;" d="M541.83,93.468l111.104-0.596v-8.561l-121.712,1.021
							C534.745,88.059,538.281,90.771,541.83,93.468z"/>
					</g>
					<g>
						<path style="fill:#FAD34A;" d="M558.249,105.793l94.685-0.079v-8.561L547.23,97.56
							C550.891,100.319,554.565,103.061,558.249,105.793z"/>
					</g>
					<g>
						<path style="fill:#FAD34A;" d="M575.241,118.268l77.692,0.287v-8.561l-89.089-0.06
							C567.634,112.724,571.433,115.502,575.241,118.268z"/>
					</g>
					<g>
						<path style="fill:#FAD34A;" d="M592.776,130.902l60.157,0.494v-8.561l-71.898-0.374
							C584.942,125.284,588.855,128.099,592.776,130.902z"/>
					</g>
					<g>
						<path style="fill:#FAD34A;" d="M610.787,143.701l42.146,0.537v-8.561l-54.198-0.527
							C602.748,138.007,606.765,140.857,610.787,143.701z"/>
					</g>
					<g>
						<path style="fill:#FAD34A;" d="M629.193,156.67l23.74,0.41v-8.561l-36.051-0.514
							C620.984,150.897,625.088,153.785,629.193,156.67z"/>
					</g>
					<g>
						<path style="fill:#FAD34A;" d="M647.905,169.812l5.028,0.11v-8.561l-17.533-0.329
							C639.569,163.958,643.738,166.885,647.905,169.812z"/>
					</g>
				</g>
			</g>
		</g>
		<g>
			<path style="fill:#106887;" d="M409.611,203.185c3.597,1.539,4.47,6.147,4.848,10.041c0.955,9.831,2.029,19.275,1.779,29.525
				c4.519-0.07,10.122-0.173,14.641-0.244c-0.766-9.428-1.532-18.856-2.299-28.283c-0.221-2.722-0.49-5.584-2.038-7.834
				c-1.729-2.515-4.816-3.825-7.855-4.113C415.65,201.989,412.604,202.588,409.611,203.185z"/>
		</g>
		<g>
			<g>
				<g>
					<g>
						<path style="fill:#022A44;" d="M332.843,243.403h-0.005c-1.654,0-2.997,1.34-3,2.995l-0.249,154.299l-42.518,15.598V249.032
							c0-1.657-1.343-3-3-3s-3,1.343-3,3v172.469h9.226l45.285-16.613l0.255-158.48C335.841,244.751,334.5,243.405,332.843,243.403z
							"/>
					</g>
				</g>
				<g>
					<g>
						<path style="fill:#022A44;" d="M591.771,264.781c-1.657,0-3,1.343-3,3v145.327l-64.807,22.594V270.378c0-1.657-1.343-3-3-3
							c-1.657,0-3,1.343-3,3v170.123h10.457l66.35-23.132V267.781C594.771,266.123,593.428,264.781,591.771,264.781z"/>
					</g>
				</g>
				<g>
					<path style="fill:#00A0B3;" d="M616.733,259.905c-128.433-27.338-269.299-38.975-398.745-16.972l-9.75,18.068
						c83.579-13.696,186.425-0.089,269.932,14.063c14.979,2.538,29.926,5.526,45.087,6.514c29.345,1.911,64.605-8.712,93.475-14.306
						C616.131,263.558,616.781,262.259,616.733,259.905z"/>
				</g>
				<g>
					<path style="fill:#022A44;" d="M217.988,242.913l-9.5,14.213c0.954-0.156,1.909-0.311,2.866-0.463
						c82.887-13.205,184.262-2.956,266.816,11.034c14.979,2.538,29.926,5.526,45.087,6.514c29.345,1.911,64.605-8.712,93.475-14.306
						C488.301,232.568,347.433,220.911,217.988,242.913z"/>
				</g>
			</g>
			<g>
				<g>
					<path style="fill:#C1633A;" d="M476.557,251.29c-4.792-5.056-12.521-7.102-19.187-5.078c-2.917,0.886-5.708,2.586-7.256,5.213
						c-1.547,2.626-1.568,6.264,0.465,8.535c1.77,1.978,4.6,2.562,7.241,2.836c3.841,0.398,3.915,0.649,7.751,0.206
						c2.236-0.258,6.783-2.6,8.667-3.833c1.883-1.233,4.833-1.805,4.5-4.031C478.517,253.655,477.587,252.377,476.557,251.29z"/>
				</g>
				<g>
					<path style="fill:#022A44;" d="M476.224,247.79c-4.792-5.056-12.521-7.102-19.187-5.078c-2.917,0.886-5.708,2.586-7.256,5.213
						c-1.547,2.626-1.568,6.264,0.465,8.535c1.77,1.978,4.6,2.562,7.241,2.836c3.841,0.398,3.915,0.649,7.751,0.206
						c2.236-0.258,6.783-2.6,8.667-3.833c1.883-1.233,4.833-1.805,4.5-4.031C478.184,250.155,477.254,248.877,476.224,247.79z"/>
				</g>
			</g>
			<g>
				<g>
					<path style="fill:#C1633A;" d="M343.67,244.958c0.09,1.334,1.212,2.418,2.467,2.881c1.255,0.462,2.63,0.429,3.967,0.393
						c20.282-0.55,40.683-0.359,60.706,2.917c5.23,0.856,10.454,1.924,15.752,2.052c5.298,0.128,10.762-0.749,15.281-3.518
						c1.943-1.191,3.851-3.119,3.573-5.382c-0.201-1.629-1.539-2.935-3.051-3.574c-1.511-0.639-3.188-0.733-4.827-0.827
						c-29.711-1.711-59.974-6.234-88.891,0.799C346.331,241.262,343.509,242.58,343.67,244.958z"/>
				</g>
				<g>
					<path style="fill:#DC8456;" d="M337.42,245.708c0.09,1.334,1.212,2.418,2.467,2.881c1.255,0.462,2.63,0.429,3.967,0.393
						c20.282-0.55,40.683-0.359,60.706,2.917c5.23,0.856,10.454,1.924,15.752,2.052c5.298,0.128,10.762-0.749,15.281-3.518
						c1.943-1.191,3.851-3.119,3.573-5.382c-0.201-1.629-1.539-2.935-3.051-3.574c-1.511-0.639-3.188-0.733-4.827-0.827
						c-29.711-1.711-59.974-6.234-88.891,0.799C340.081,242.012,337.259,243.33,337.42,245.708z"/>
				</g>
			</g>
		</g>
		<g>
			<g>
				<path style="fill:#022A44;" d="M296.497,134.311l0.152,89.882c65.53-9.445,131.968-10.067,197.069-1.886l2.755-110.282
					C429.628,107.475,361.611,115.062,296.497,134.311z"/>
			</g>
			<g>
				<g>
					<g>
						<g>
							<path style="fill:#DC8456;" d="M299.371,134.78l-0.141,85.099c62.577-8.732,125.992-9.107,188.102-1.152l2.981-104.404
								C426.526,109.799,361.581,116.764,299.371,134.78z"/>
						</g>
						<g>
							<path style="fill:#00A0B3;" d="M490.091,122.088l0.222-7.764c-63.787-4.524-128.732,2.44-190.942,20.456l-0.014,8.659
								C359.439,119.685,425.386,116.778,490.091,122.088z"/>
						</g>
						<g>
							<path style="fill:#C1633A;" d="M356.898,179.908c-20.58,5.9-39.768,1.418-57.592-6.679l-0.079,47.9
								c62.577-8.732,125.992-9.107,188.102-1.152l2.39-83.726C446.264,151.929,402.287,166.953,356.898,179.908z"/>
						</g>
					</g>
					<g>
						<path style="fill:#00A0B3;" d="M299.24,214.523l-0.008,5.106c62.577-8.732,125.992-9.107,188.102-1.152l0.189-6.606
							C425.172,205.313,361.783,207.547,299.24,214.523z"/>
					</g>
				</g>
				<g>
					<path style="fill:#022A44;" d="M490.086,123.588l0.222-7.764c-63.787-4.524-128.732,2.44-190.942,20.456l-0.014,8.659
						C359.434,121.185,425.381,118.278,490.086,123.588z"/>
				</g>
				<g>
					<g>
						<g>
							<path style="fill:#F7E094;" d="M342.344,185.718c0,0,65.08,0.326,105.826,1.713l11.805-16.46l-54.615-40.184l-25.321,20.915
								l-10.974-7.787l-37.629,38.124L342.344,185.718z"/>
						</g>
						<g>
							<path style="fill:#C1633A;" d="M453.599,189.279l-14.06-13.075c-0.875-0.815-1.832-1.6-2.84-1.525
								c-0.599,0.046-1.153,0.388-1.74,0.75c-0.33,0.204-0.671,0.414-1.037,0.583c-2.6,1.193-5.582-0.095-7.889-1.354
								c-4.767-2.6-9.348-5.622-13.616-8.981l-0.427-0.337c-2.569-2.03-5.227-4.129-8.356-4.352c-3.24-0.223-6.3,1.632-8.907,3.396
								c-9.878,6.681-18.793,14.684-26.5,23.785l-0.763-0.646c7.765-9.171,16.749-17.235,26.702-23.967
								c2.746-1.857,5.986-3.815,9.538-3.564c3.438,0.244,6.218,2.44,8.906,4.564l0.426,0.335c4.224,3.325,8.758,6.315,13.476,8.889
								c2.103,1.146,4.798,2.335,6.992,1.323c0.311-0.143,0.611-0.328,0.93-0.524c0.663-0.409,1.349-0.832,2.189-0.896
								c1.421-0.108,2.604,0.867,3.598,1.79l14.06,13.075L453.599,189.279z"/>
						</g>
					</g>
					<g>
						<g>
							<g>
								<path style="fill:#F6EBE8;" d="M467.15,198.463c-47.405-3.489-94.606-3.647-142.034-0.478
									c-0.819,0.06-1.533-0.552-1.595-1.37c-0.001-0.012-0.001-0.018-0.002-0.03c-0.062-0.818,0.555-1.531,1.376-1.592
									c47.582-3.179,94.936-3.02,142.495,0.48c0.821,0.066,1.433,0.783,1.366,1.601c-0.001,0.012-0.001,0.018-0.002,0.03
									C468.687,197.921,467.969,198.529,467.15,198.463z"/>
							</g>
						</g>
						<g>
							<g>
								<path style="fill:#DDB63A;" d="M435.646,194.6c-36.918-0.865-73.767-0.697-110.75,0.514
									c-0.822,0.03-1.437,0.396-1.374,0.817c0.001,0.006,0.001,0.009,0.002,0.015c0.063,0.421,0.778,0.738,1.597,0.708
									c36.906-1.209,73.678-1.376,110.52-0.51L435.646,194.6z"/>
							</g>
						</g>
					</g>
					<g>
						<g>
							<path style="fill:#FAD34A;" d="M445.481,141.083c6.698-0.476,13.423-0.566,20.131-0.272c1.386,0.061,2.551-1.028,2.545-2.415
								c-0.002-0.411,0.009-0.823,0.031-1.234c0.079-1.443-1.101-2.637-2.545-2.564l-20.489,1.034
								c-1.329,0.067-2.358,1.19-2.309,2.52c0.007,0.201,0.015,0.402,0.022,0.603C442.919,140.133,444.104,141.18,445.481,141.083z"
								/>
						</g>
						<g>
							<path style="fill:#FAD34A;" d="M445.454,149.083c6.698-0.476,13.423-0.566,20.131-0.272c1.386,0.061,2.551-1.027,2.545-2.415
								c-0.002-0.412,0.009-0.823,0.031-1.234c0.079-1.443-1.101-2.637-2.545-2.564l-20.489,1.034
								c-1.329,0.067-2.358,1.19-2.309,2.52c0.007,0.201,0.015,0.402,0.022,0.603C442.892,148.133,444.077,149.18,445.454,149.083z"
								/>
						</g>
						<g>
							<path style="fill:#FAD34A;" d="M445.427,157.083c6.698-0.476,13.423-0.566,20.131-0.272c1.386,0.061,2.551-1.027,2.545-2.415
								c-0.002-0.411,0.009-0.823,0.031-1.234c0.079-1.443-1.101-2.637-2.545-2.564l-20.489,1.034
								c-1.329,0.067-2.358,1.19-2.309,2.52c0.008,0.201,0.015,0.402,0.022,0.603C442.865,156.133,444.051,157.18,445.427,157.083z"
								/>
						</g>
						<g>
							<path style="fill:#FAD34A;" d="M445.4,165.083c6.698-0.476,13.423-0.566,20.131-0.272c1.386,0.061,2.551-1.028,2.545-2.415
								c-0.002-0.412,0.009-0.823,0.031-1.234c0.079-1.443-1.101-2.637-2.545-2.564l-20.489,1.034
								c-1.329,0.067-2.358,1.19-2.309,2.52c0.007,0.201,0.015,0.402,0.022,0.603C442.838,164.133,444.024,165.18,445.4,165.083z"/>
						</g>
						<g>
							<path style="fill:#FAD34A;" d="M445.373,173.083c6.698-0.476,13.423-0.566,20.131-0.272c1.386,0.061,2.551-1.028,2.545-2.415
								c-0.002-0.411,0.009-0.823,0.031-1.234c0.079-1.443-1.101-2.637-2.545-2.564l-20.489,1.034
								c-1.329,0.067-2.358,1.19-2.309,2.52c0.008,0.201,0.015,0.402,0.022,0.603C442.811,172.133,443.997,173.18,445.373,173.083z"
								/>
						</g>
						<g>
							<path style="fill:#FAD34A;" d="M445.346,181.083c6.698-0.476,13.423-0.566,20.131-0.272c1.386,0.061,2.551-1.027,2.546-2.415
								c-0.002-0.412,0.009-0.823,0.031-1.234c0.079-1.443-1.101-2.637-2.545-2.564l-20.489,1.034
								c-1.329,0.067-2.358,1.19-2.309,2.52c0.007,0.201,0.015,0.402,0.022,0.603C442.784,180.133,443.97,181.18,445.346,181.083z"
								/>
						</g>
					</g>
				</g>
			</g>
		</g>
		<g>
			<g>
				<g>
					<g>
						<g>
							<g>
								<path style="fill:#022A44;" d="M245.985,452.312c-5.489,0-9.938,4.482-9.938,10.011c0,5.529,4.449,10.011,9.938,10.011
									c5.489,0,9.938-4.482,9.938-10.011C255.923,456.794,251.474,452.312,245.985,452.312z"/>
							</g>
						</g>
					</g>
				</g>
				<g>
					<g>
						<g>
							<g>
								<path style="fill:#022A44;" d="M427.551,452.607c-5.488,0-9.938,4.482-9.938,10.011c0,5.529,4.449,10.011,9.938,10.011
									c5.489,0,9.938-4.482,9.938-10.011C437.49,457.09,433.04,452.607,427.551,452.607z"/>
							</g>
						</g>
					</g>
				</g>
				<g>
					<g>
						<g>
							<g>
								<path style="fill:#DC8456;" d="M427.551,457.141c-3.003,0-5.437,2.452-5.437,5.477s2.434,5.477,5.437,5.477
									c3.003,0,5.438-2.452,5.438-5.477S430.555,457.141,427.551,457.141z"/>
							</g>
						</g>
					</g>
				</g>
				<g>
					<g>
						<g>
							<g>
								<path style="fill:#DC8456;" d="M243.37,457.141c-1.785,0-3.231,2.452-3.231,5.477s1.447,5.477,3.231,5.477
									c1.785,0,3.231-2.452,3.231-5.477S245.155,457.141,243.37,457.141z"/>
							</g>
						</g>
					</g>
				</g>
				<g>
					<g>
						<g>
							<g>
								<path style="fill:#022A44;" d="M426.798,447.609c-11.713-0.96-46.191-3.826-59.453-5.398
									c-16.09-1.907-22.716-10.487-22.716-10.487h-2.086v-55.361h-2.104v-31.835h-7.922v31.835h-2.103v55.361h-2.086
									c0,0-6.625,8.58-22.715,10.487c-13.261,1.572-47.74,4.439-59.453,5.398c-2.239,0.183-3.961,2.067-3.961,4.33v2.348
									l82.66-6.728c-1.51,1.304-3.127,2.505-4.75,3.604c-1.357,0.92-2.763,1.838-3.745,3.155c-0.48,0.644-0.828,1.355-1.087,2.102
									h-4.879v18.586h16.363V456.42h-5.139c0.059-0.489,0.095-0.981,0.165-1.47c6.436-0.918,12.542-3.826,17.449-8.113
									l91.522,7.45v-2.348C430.759,449.676,429.037,447.792,426.798,447.609z"/>
							</g>
						</g>
					</g>
				</g>
			</g>
			<g>
				<g>
					<g>
						<g>
							<g>
								<polygon style="fill:#DC8456;" points="342.544,403.242 342.544,361.422 340.44,361.422 340.44,329.587 332.518,329.587 
									332.518,361.422 330.415,361.422 330.415,403.242 								"/>
							</g>
						</g>
					</g>
				</g>
			</g>
		</g>
		<g>
			<g>
				<g>
					<path style="fill:#106887;" d="M422.317,325.361c5.366-0.641,11.135-1.783,14.745-5.803c3.779-4.208,4.107-10.825,1.617-15.903
						c-2.491-5.078-7.375-8.688-12.678-10.652c-5.303-1.964-11.035-2.445-16.69-2.571c-25.542-0.572-50.808,5.687-76.355,5.974
						c-1.347,9.818-2.694,19.636-4.041,29.454C359.998,323.651,391.374,329.056,422.317,325.361z"/>
				</g>
				<g>
					<path style="fill:#022A44;" d="M353.701,310.339c17.664-8.068,35.707-16.244,55.01-18.364
						c7.64-0.839,15.688-0.639,22.568,2.788c6.88,3.426,12.258,10.731,11.488,18.378c-0.789,7.834-7.377,13.699-13.818,18.228
						c-22.637,15.915-48.977,25.565-74.976,35.04c-3.875,1.412-7.893,2.846-12.007,2.56c-5.777-0.402-10.762-4.11-15.006-8.05
						c-14.075-13.068-24.071-30.469-28.269-49.21c-0.563-2.512-0.887-5.521,0.962-7.312c1.074-1.04,2.625-1.38,4.09-1.676
						c13.082-2.645,26.163-5.289,39.245-7.934C346.559,299.971,350.13,305.155,353.701,310.339z"/>
				</g>
				<g>
					<g>
						<g>
							<g>
								<g>
									<g>
										<g>
											<g>
												<g>
													<path style="fill:#F6EBE8;" d="M353.968,116.377c2.452,5.213,2.652,11.475,0.534,16.727
														c0.842,10.903-4.97,21.886-14.201,26.834c-10.386-1.323-19.698-10.004-22.127-20.626
														c-2.429-10.623,2.202-22.413,11.004-28.018c4.884-3.11,11.41-4.275,16.462-1.201L353.968,116.377z"/>
												</g>
											</g>
										</g>
									</g>
								</g>
								<g>
									<g>
										<g>
											<g>
												<g>
													<path style="fill:#E8BAA0;" d="M352.634,116.044c2.452,5.213,2.652,11.475,0.534,16.727
														c0.842,10.903-4.97,21.886-14.201,26.834c-10.386-1.323-19.698-10.004-22.127-20.626
														c-2.429-10.623,2.202-22.414,11.004-28.019c4.884-3.11,11.41-4.275,16.462-1.201L352.634,116.044z"/>
												</g>
											</g>
										</g>
									</g>
								</g>
								<g>
									<g>
										<g>
											<g>
												<g>
													<path style="fill:#C1633A;" d="M333.806,108.422c-2.107,0.501-4.148,1.384-5.962,2.539
														c-8.802,5.605-13.433,17.396-11.004,28.019c2.429,10.622,11.741,19.303,22.127,20.626
														c0.881-0.472,1.719-1.015,2.535-1.592C333.405,142.449,327.949,124.529,333.806,108.422z"/>
												</g>
											</g>
										</g>
									</g>
								</g>
								<g>
									<g>
										<g>
											<g>
												<g>
													<path style="fill:#E8BAA0;" d="M304.703,176.744c-1.375-0.877-0.914-2.959-0.336-4.484
														c4.674-12.33,6.955-25.079,5.245-38.154c8.635,1.02,16.688,0.237,25.313-0.86c0.446,14.718,2.027,29.401,4.723,43.877
														c-11.007-0.004-22.014-0.008-33.022-0.011C305.965,177.112,305.262,177.1,304.703,176.744z"/>
												</g>
											</g>
										</g>
									</g>
								</g>
								<g>
									<g>
										<path style="fill:#022A44;" d="M358.931,112.981c4.143-2.723,6.566-7.856,6.036-12.785
											c-2.552,2.52-6.057,4.05-9.641,4.206c0.976-0.237,1.828-0.938,2.251-1.848c-4.057,0.887-8.297-0.099-12.179-1.572
											c-3.882-1.473-7.582-3.436-11.563-4.616c-3.98-1.181-8.418-1.517-12.178,0.244c-0.46,0.215-0.882,0.495-1.309,0.764
											c-2.367,0.388-4.656,1.127-6.73,2.346c-7.062,4.153-10.392,12.97-9.911,21.149c0.48,8.179,2.201,17.456,6.444,24.464
											c8.813,1.467,20.106-2.063,27.645-6.857c1.048-0.667,2.045-1.408,3.016-2.181c0.068-1.644-0.222-3.297-0.414-4.94
											c-0.223-1.918-0.257-3.955,0.629-5.67c0.886-1.715,2.955-2.951,4.778-2.316c1.193,0.416,2.036,1.53,2.444,2.727
											c0.185,0.542,0.287,1.103,0.353,1.672c1.222-1.847,2.302-3.789,3.179-5.822c5.698-1.138,10.69-5.511,12.373-11.092
											C362.563,111.874,360.782,112.6,358.931,112.981z"/>
									</g>
								</g>
								<g>
									<g>
										<g>
											<g>
												<path style="fill:#CC5A44;" d="M345.641,130.151c0.164-0.478,0.547-0.844,0.822-1.268
													c0.593-0.919,0.624-2.213-0.046-3.078c-0.669-0.865-2.048-1.134-2.92-0.475c-0.847,0.639-1.013,1.878-0.754,2.907
													c0.277,1.099,0.934,2.057,1.579,2.989c-0.517-0.217-1.171-0.041-1.509,0.406c-0.338,0.447-0.328,1.124,0.022,1.562
													c0.247,0.308,0.619,0.483,0.94,0.714c0.321,0.23,0.617,0.579,0.578,0.972c-0.024,0.24-0.17,0.452-0.218,0.689
													c-0.048,0.237,0.075,0.549,0.316,0.546c0.153-0.002,0.271-0.13,0.364-0.251c0.772-1.014,1.119-2.341,0.943-3.603
													C345.662,131.555,345.41,130.825,345.641,130.151z"/>
											</g>
										</g>
									</g>
								</g>
								<g>
									<g>
										<g>
											<g>
												<path style="fill:#106887;" d="M334.323,104.905c1.084,0.273,1.367,1.736,2.299,2.353
													c1.08,0.714,2.488,0.051,3.737-0.292c2.288-0.627,4.773-0.06,6.871,1.047c2.099,1.107,3.881,2.719,5.639,4.313
													c0.439-1.493,0.878-2.986,1.317-4.478c-9.51-2.418-19.02-4.835-28.531-7.253c0.98,1.893,1.96,3.786,2.94,5.679
													c0.178,0.345,0.371,0.705,0.696,0.916c0.833,0.538,1.897-0.185,2.564-0.919
													C332.522,105.535,333.362,104.663,334.323,104.905z"/>
											</g>
										</g>
									</g>
								</g>
							</g>
							<g>
								<g>
									<g>
										<path style="fill:#F4EBE8;" d="M338.404,189.6c-0.042-5.312-0.285-11.354,3.167-14.932c3.81-3.949,3.63-7.247,9.167-8
											c2.93-0.399,17.174,5.765,18.667,8.167c4.302,6.922,5.763,11.423,8.167,19c0.992,3.127,2.405,8.027,3.333,11.167
											c0.316,1.068,2.741,6.157,2.333,6.5c-0.033,0.028,2.2,8.639,2.167,8.667c0.753,1.92,3.354,9.838,4.333,12
											c1.263,2.791,7.432,8.865,8.667,11.667c7.974-1.577,36.167-2.951,45.833-4.5c11.118,8.72,12.61,18.629,12.778,24.167
											c-11.516,5.206-48.003,6.39-59.638,7.582c-3.514,0.36-6.132,1.679-9.727,1.351c-1.718-0.157-3.344-0.841-4.813-1.822
											c-3.816-1.669-6.663-5.255-8.941-8.826c-4.295-6.731-12.93-24.185-16.516-31.258c-0.092-0.182-0.18-0.349-0.27-0.525
											c-0.28,0.065-0.557,0.147-0.837,0.209c-2.419-4.217-3.993-8.76-6.383-12.986
											C344.907,208.411,338.484,199.71,338.404,189.6z"/>
									</g>
									<g>
										<g>
											<g>
												<g>
													<g>
														<g>
															<path style="fill:#106887;" d="M362.162,303.288c-0.347-1.374-0.701-2.691-1.035-4.144
																c-4.319-16.995-3.688-24.492-4.793-29.803c-2.703-12.989,0.204-18.4,3.333-31.293
																c2.382-9.818,5.652-26.189,8.27-35.947c2.619-9.757,2.092-21.441-5.289-28.341
																c-4.402-4.116-10.474-5.824-16.397-7.029c-5.863-1.193-11.792-2.01-17.747-2.595
																c-11.495-1.131-29.886-3.041-38.744,7.806c-4.349,5.325-8.757,14.35-10.535,20.992
																c-9.739,36.381-2.07,60.57,3.636,116.992c0.029,0.286,0.034,0.69,0.018,1.196c-0.091,2.868,2.268,5.276,5.137,5.214
																C313.411,315.785,338.267,311.19,362.162,303.288z"/>
														</g>
													</g>
												</g>
											</g>
										</g>
									</g>
									<g>
										<path style="fill:#105666;" d="M306.593,158.899c1.405-0.038,2.771,0.412,4.125,0.79
											c5.493,1.536,11.296,1.959,16.954,1.237c-7.425,5.13-16.434,7.933-25.459,7.92c-1.026-0.001-2.081-0.044-3.024-0.447
											s-1.765-1.243-1.864-2.265c-0.135-1.39,1.019-2.531,2.075-3.445C301.493,160.88,303.826,158.973,306.593,158.899z"/>
									</g>
									<g>
										<g>
											<g>
												<g>
													<g>
														<g>
															<path style="fill:#1D2630;" d="M274.822,237.483c27.411-5.185,59.014-5.453,83.622,5.344
																c-2.578,9.681-4.453,15.254-2.109,26.514c1.105,5.312,0.475,12.808,4.793,29.803
																c0.333,1.452,0.688,2.769,1.034,4.144c-23.896,7.901-48.751,12.496-74.146,13.048
																c-2.869,0.062-5.228-2.346-5.137-5.214c0.016-0.507,0.011-0.91-0.018-1.196
																C279.656,278.232,275.832,256.71,274.822,237.483z"/>
														</g>
													</g>
												</g>
											</g>
										</g>
									</g>
									<g>
										<g>
											<g>
												<g>
													<g>
														<g>
															<path style="fill:#00A0B3;" d="M362.162,303.289c-0.346-1.374-0.701-2.692-1.034-4.144
																c-4.319-16.995-3.688-24.492-4.793-29.803c-2.703-12.989,0.204-18.4,3.333-31.293
																c2.382-9.818,5.652-26.189,8.27-35.947c2.431-9.058,2.141-19.77-3.815-26.779
																c-33.603,32.38-28.575,89.26-15.696,132.136C353.04,306.198,357.615,304.792,362.162,303.289z"/>
														</g>
													</g>
												</g>
											</g>
										</g>
									</g>
									<g>
										<g>
											<g>
												<path style="fill:#022A44;" d="M353.349,305.387l-1.031,0.18c-5.273-30.052-4.813-61.734,1.335-91.621l1.022,0.209
													C348.555,243.915,348.095,275.463,353.349,305.387z"/>
											</g>
										</g>
									</g>
								</g>
							</g>
						</g>
					</g>
				</g>
				<g>
					<g>
						<path style="fill:#E8BAA0;" d="M445.484,246.54c1.671-0.268,3.2-0.625,4.486-1.132c0.37-2.006,0.74-4.012,1.11-6.018
							c0.219-1.186,0.584-2.546,1.733-2.893c0.875-0.264,1.918,0.206,2.617,0.917c0.699,0.71,1.126,1.623,1.537,2.513
							c2.394-0.869,4.919-1.454,7.511-1.739c0.597-0.066,1.245-0.106,1.804,0.204c0.949,0.526,1.232,1.816,2.122,2.446
							c1.361,0.964,3.433-0.052,4.595,1.149c0.744,0.769,0.689,2.111,1.58,2.696c0.859,0.564,2.061,0.034,2.863,0.68
							c0.719,0.579,0.617,1.706,1.233,2.393c0.34,0.379,0.842,0.559,1.245,0.869c0.816,0.628,1.131,1.735,1.023,2.686
							c-0.108,0.951-1.349,5.692-1.798,6.504c-5.218-0.329-1.828-5.3-3.138-4.921c-1.31,0.38-2.381,1.225-3.573,1.843
							c-2.91,1.509-6.494,1.571-9.947,0.858c-3.123,2.42-6.863,4.538-10.951,6.386C451.369,256.441,449.395,250.918,445.484,246.54z
							"/>
					</g>
					<g>
						<path style="fill:#106887;" d="M453.207,245.206c4.282,2.85,8.197,6.942,9.229,11.797c-2.685,1.886-5.37,3.772-8.055,5.659
							c-1.478-6.274-4.401-12.362-8.471-17.642c0.513-1.218,2.001-1.741,3.39-1.557C450.69,243.647,451.996,244.4,453.207,245.206z"
							/>
					</g>
					<g>
						<path style="fill:#00A0B3;" d="M338.904,192.1c-0.042-5.312,2.34-10.015,5.792-13.593c3.81-3.95,9.374-5.514,14.91-6.267
							c2.93-0.399,7.471,3.337,8.964,5.738c4.302,6.922,7.117,14.77,9.52,22.346c0.992,3.127,1.881,6.274,2.81,9.413
							c0.316,1.069,1.376,2.966,0.968,3.309c-0.033,0.028,2.65,7.867,2.617,7.895c0.753,1.919,4.442,10.913,5.421,13.076
							c1.263,2.791,6.098,10.183,7.332,12.984c7.974-1.577,38.293-4.829,47.959-6.378c11.118,8.72,12.151,19.84,12.319,25.378
							c-11.516,5.206-48.003,6.39-59.638,7.582c-3.514,0.36-6.132,1.679-9.727,1.351c-1.718-0.157-3.344-0.841-4.813-1.822
							c-3.816-1.669-6.663-5.255-8.941-8.826c-4.295-6.731-12.93-24.185-16.516-31.258c-0.092-0.182-0.18-0.349-0.27-0.525
							c-0.28,0.065-0.557,0.147-0.837,0.209c-2.419-4.217-3.993-8.76-6.383-12.986C345.407,210.911,338.984,202.21,338.904,192.1z"
							/>
					</g>
					<g>
						<path style="fill:#098C96;" d="M339.743,186.644c12.53,23.822,19.994,48.637,38.369,66.781
							c16.56,17.505,56.727,10.316,78.604,6.772c0.819,2.222,0.759,4.454,0.8,5.803c-11.516,5.206-48.003,6.39-59.638,7.582
							c-3.514,0.36-6.131,1.679-9.727,1.351c-1.718-0.157-3.344-0.84-4.813-1.822c-3.816-1.669-6.663-5.255-8.941-8.826
							c-4.295-6.731-12.93-24.185-16.516-31.258c-0.092-0.182-0.18-0.349-0.27-0.525c-0.28,0.065-0.557,0.147-0.837,0.209
							c-2.419-4.217-3.993-8.76-6.383-12.986c-4.985-8.815-11.408-17.516-11.488-27.625
							C338.889,190.194,339.196,188.37,339.743,186.644z"/>
					</g>
				</g>
				<g>
					<path style="fill:#022A44;" d="M331.817,177.266c5.454-4.581,12.088-7.745,19.081-9.102c-2.958-5.094-8.583-8.533-14.465-8.846
						c-5.155-0.274-10.13,1.68-15.006,3.376c-6.758,2.351-13.694,4.269-20.788,5.207c-1.072,0.142-2.641-0.224-2.44-1.286
						c0.073-0.381,0.384-0.665,0.679-0.918c2.763-2.381,5.525-4.763,8.288-7.144c-7.032,1.789-13.658,4.869-20.236,7.933
						c-2.766,1.288-5.643,2.663-7.498,5.086c-2.223,2.904-2.588,6.864-2.032,10.479c0.555,3.615,1.924,7.048,2.863,10.583
						c0.939,3.535,1.433,7.349,0.241,10.807c10.58-0.24,21.729-0.724,30.694-6.346C319.298,192.016,324.496,183.415,331.817,177.266
						z"/>
				</g>
			</g>
			<g>
				<path style="fill:#00A0B3;" d="M352.518,102.73c-3.021-1.365-6.042-2.73-9.063-4.096c1.804,7.516,2.016,15.41,0.616,23.012
					c1.315,0.427,2.63,0.855,3.945,1.282C350.5,116.465,352.022,109.635,352.518,102.73z"/>
			</g>
			<g>
				<path style="fill:#FAD34A;" d="M342.551,140.833c2.125,0.735,4.672,1.412,6.458,0.046c1.306-0.999,1.715-2.756,2.032-4.37
					c0.526-2.678,1.039-5.358,1.539-8.041c0.347-1.864,0.665-3.895-0.222-5.571c-0.842-1.59-2.566-2.471-4.186-3.253
					c-1.408-0.681-3.015-1.375-4.482-0.833c-1.195,0.442-1.958,1.591-2.607,2.688c-1.473,2.489-2.79,5.07-3.941,7.722
					c-1.014,2.335-1.894,5.046-0.822,7.354C337.41,138.925,340.104,139.987,342.551,140.833z"/>
			</g>
			<g>
				<path style="fill:#00A0B3;" d="M344.355,140.623c2.752,0.925,5.865-0.761,7.395-3.228c1.53-2.467,1.796-5.505,1.747-8.407
					c-0.031-1.804-0.224-3.749-1.413-5.107c-1.645-1.879-4.745-1.891-6.857-0.558c-2.111,1.333-3.378,3.676-4.172,6.043
					c-0.692,2.064-1.095,4.291-0.646,6.421C340.86,137.918,342.291,139.93,344.355,140.623z"/>
			</g>
		</g>
		<g>
			<path style="fill:#FAD34A;" d="M345.619,337.427L345.619,337.427c-1.446,0-3.009-0.464-4.401-1.308
				c-5.166-3.129-6.707-9.56-6.427-14.534c0.168-2.979,1.083-5.025,2.719-6.08c0.786-0.507,1.711-0.765,2.751-0.765
				c1.616,0,3.099,0.608,4.058,1.118c4.994,2.654,8.149,8.231,7.852,13.879c-0.177,3.354-1.652,6.016-3.947,7.118
				C347.436,337.234,346.56,337.427,345.619,337.427z M340.261,315.74c-0.845,0-1.588,0.203-2.209,0.604
				c-1.353,0.873-2.114,2.654-2.263,5.297c-0.264,4.685,1.16,10.723,5.947,13.622c1.237,0.75,2.616,1.163,3.882,1.163l0,0
				c0.79,0,1.521-0.158,2.172-0.472c2.308-1.11,3.26-3.967,3.381-6.271c0.273-5.185-2.738-10.507-7.322-12.943
				C342.636,316.096,341.361,315.74,340.261,315.74z"/>
		</g>
		<g>
			<g>
				<g>
					<path style="fill:#C1633A;" d="M591.967,131.518c-1.56-3.413-5.468-4.978-9.048-6.102c-8.395-2.635-13.234-3.515-21.943-4.775
						c-9.29-1.344-17.958-2.843-27.345-2.918c-9.099-0.073-21.274,1.949-28.926,8.01c3.242,43.527,6.121,92.958,9.363,136.485
						c23.257,6.963,48.212,2.305,72.03-2.396c0.021-40.141,0.057-80.468,6.17-120.141
						C592.69,136.949,593.117,134.032,591.967,131.518z"/>
				</g>
				<g>
					<path style="fill:#DC8456;" d="M542.213,264.228l-0.617-0.787c1.739-1.367,1.656-6.885,1.477-8.896
						c-1.164-14.302-1.332-126.6-1.001-131.246c0.091-1.267-0.196-2.28-0.853-3.012c-1.083-1.208-2.816-1.285-2.833-1.286
						l0.037-0.999c0.088,0.003,2.177,0.097,3.54,1.617c0.845,0.941,1.218,2.204,1.107,3.751c-0.331,4.64-0.163,116.808,0.999,131.09
						C544.14,255.252,544.688,262.283,542.213,264.228z"/>
				</g>
				<g>
					<g>
						<path style="fill:#E8BAA0;" d="M559.373,230.257l-14.335-60.54c-0.778-3.29-1.747-7.385-0.599-11.117
							c1.315-4.277,5.013-7.206,8.686-9.838c8.718-6.249,17.865-12.108,27.185-17.412c0.912-0.52,2.048-1.166,3.314-1.244
							c1.669-0.104,3.462,0.862,4.644,2.522c1.029,1.447,1.537,3.207,1.984,4.759l-0.961,0.277
							c-0.446-1.548-0.907-3.148-1.838-4.457c-0.77-1.081-2.152-2.189-3.77-2.104c-0.957,0.059-1.833,0.519-2.88,1.115
							c-9.29,5.287-18.407,11.126-27.098,17.355c-3.535,2.534-7.089,5.34-8.314,9.32c-1.068,3.473-0.173,7.255,0.616,10.593
							l14.335,60.54L559.373,230.257z"/>
					</g>
					<g>
						
							<rect x="573.321" y="225.15" transform="matrix(0.3062 -0.952 0.952 0.3062 171.8507 711.1409)" style="fill:#E8BAA0;" width="1" height="25.037"/>
					</g>
				</g>
			</g>
			<g>
				<g>
					<g>
						<path style="fill:#022A44;" d="M533.074,262.414c-4.665-0.595-9.331-1.19-13.996-1.786c-1.887-0.241-3.895-0.534-5.327-1.786
							c-2.053-1.796-2.215-4.878-2.233-7.606c-0.268-40.533-3.251-82.803-7.443-123.119c8.43-4.626,18.484-5.898,28.024-7.108
							c2.222-0.282,4.879-0.29,6.211,1.51c0.821,1.11,0.868,2.592,0.883,3.972c0.461,43.431,0.922,86.862,1.383,130.293
							c0.015,1.411-0.002,2.928-0.823,4.076C538.353,262.819,535.463,262.719,533.074,262.414z"/>
					</g>
					<g>
						<path style="fill:#FAD34A;" d="M533.55,257.397c-0.014,0-0.027,0-0.042,0c-4.116-0.063-14.467-0.506-21.654-3.279l0.359-0.934
							c7.037,2.717,17.247,3.151,21.31,3.213c0.458,0.008,0.89-0.166,1.216-0.485c0.329-0.323,0.512-0.756,0.514-1.218l0.151-34.847
							l-5.185-2.754l-1.64-45.267l5.844-9.091l-1.643-33.477c-0.063-1.272-1.188-2.301-2.415-2.239
							c-13.284,0.389-25.196,4.453-25.315,4.494l-0.326-0.945c0.12-0.042,12.178-4.155,25.612-4.548
							c1.807-0.066,3.354,1.379,3.442,3.19l1.659,33.797l-5.848,9.097l1.608,44.378l5.208,2.767l-0.153,35.451
							c-0.004,0.732-0.292,1.417-0.813,1.928C534.931,257.125,534.261,257.397,533.55,257.397z"/>
					</g>
				</g>
				<g>
					<g>
						<path style="fill:#00A0B3;" d="M529.371,140.456c1.187-0.858,0.797-3.317-0.387-4.179c-1.184-0.862-2.778-0.449-4.242-0.391
							c-5.332,0.212-10.641,1.014-15.798,2.386c-0.762,0.202-1.548,0.433-2.137,0.956c-0.589,0.524-0.424,1.531-0.052,2.226
							c0.483,0.901,1.242,0.846,2.262,0.775c6.161-0.428,12.321-0.857,18.482-1.285C528.151,140.898,528.841,140.84,529.371,140.456
							z"/>
					</g>
					<g>
						<g>
							<g>
								<ellipse style="fill:#00A0B3;" cx="517.29" cy="175.558" rx="6.882" ry="10.901"/>
							</g>
							<g>
								<g>
									<g>
										<path style="fill:#022A44;" d="M514.11,171.37c0.295,0.155,0.591,0.307,0.885,0.461c0.561-1.866,1.426-3.649,2.502-5.277
											c-2.038,0.412-3.723,1.972-4.642,3.837c-0.03,0.06-0.053,0.124-0.081,0.184C513.232,170.856,513.68,171.144,514.11,171.37
											z"/>
									</g>
									<g>
										<path style="fill:#022A44;" d="M514.689,179.678c-0.7,0.287-1.396,0.584-2.084,0.898c0.136,0.342,0.28,0.681,0.461,1.003
											c0.866,1.544,2.341,2.812,4.085,3.117C515.94,183.251,515.13,181.513,514.689,179.678z"/>
									</g>
									<g>
										<path style="fill:#022A44;" d="M512.292,179.627c0.725-0.33,1.46-0.64,2.198-0.941c-0.165-1.011-0.233-2.039-0.178-3.059
											c0.051-0.948,0.202-1.885,0.421-2.807c-0.376-0.196-0.752-0.391-1.128-0.587c-0.379-0.198-0.786-0.46-1.206-0.718
											c-0.534,1.576-0.676,3.285-0.6,4.956C511.848,177.536,512.003,178.603,512.292,179.627z"/>
									</g>
								</g>
								<g>
									<path style="fill:#022A44;" d="M520.657,179.612c1.76-2.287,1.885-5.699,0.298-8.109
										C521.625,174.162,521.52,177.011,520.657,179.612z"/>
								</g>
							</g>
						</g>
						<g>
							<g>
								<ellipse style="fill:#00A0B3;" cx="519.239" cy="200.73" rx="6.882" ry="10.901"/>
							</g>
							<g>
								<g>
									<g>
										<path style="fill:#022A44;" d="M516.985,196.62c0.295,0.155,0.591,0.307,0.885,0.461c0.561-1.866,1.426-3.649,2.502-5.277
											c-2.038,0.412-3.723,1.972-4.642,3.837c-0.03,0.06-0.053,0.124-0.081,0.184
											C516.107,196.106,516.555,196.394,516.985,196.62z"/>
									</g>
									<g>
										<path style="fill:#022A44;" d="M517.564,204.928c-0.7,0.287-1.396,0.584-2.084,0.898c0.136,0.342,0.28,0.681,0.461,1.003
											c0.866,1.544,2.341,2.812,4.085,3.117C518.815,208.501,518.005,206.763,517.564,204.928z"/>
									</g>
									<g>
										<path style="fill:#022A44;" d="M515.167,204.877c0.725-0.33,1.46-0.64,2.198-0.941c-0.165-1.011-0.233-2.039-0.178-3.059
											c0.051-0.948,0.202-1.885,0.421-2.807c-0.376-0.196-0.752-0.391-1.128-0.587c-0.379-0.198-0.786-0.46-1.206-0.718
											c-0.534,1.576-0.676,3.285-0.6,4.956C514.723,202.786,514.878,203.853,515.167,204.877z"/>
									</g>
								</g>
								<g>
									<path style="fill:#022A44;" d="M523.532,204.862c1.76-2.287,1.885-5.699,0.298-8.109
										C524.5,199.412,524.395,202.261,523.532,204.862z"/>
								</g>
							</g>
						</g>
						<g>
							<g>
								<ellipse style="fill:#00A0B3;" cx="521.188" cy="226.876" rx="6.882" ry="10.901"/>
							</g>
							<g>
								<g>
									<g>
										<path style="fill:#022A44;" d="M518.235,223.37c0.295,0.155,0.591,0.307,0.885,0.461c0.561-1.866,1.426-3.649,2.502-5.277
											c-2.038,0.412-3.723,1.972-4.642,3.837c-0.03,0.06-0.053,0.124-0.081,0.184
											C517.357,222.856,517.805,223.144,518.235,223.37z"/>
									</g>
									<g>
										<path style="fill:#022A44;" d="M518.814,231.678c-0.7,0.287-1.396,0.584-2.084,0.898c0.136,0.342,0.28,0.681,0.461,1.003
											c0.866,1.544,2.341,2.812,4.085,3.117C520.065,235.251,519.255,233.513,518.814,231.678z"/>
									</g>
									<g>
										<path style="fill:#022A44;" d="M516.417,231.627c0.725-0.33,1.46-0.64,2.198-0.941c-0.165-1.011-0.233-2.039-0.178-3.059
											c0.051-0.948,0.202-1.885,0.421-2.807c-0.376-0.196-0.752-0.391-1.128-0.587c-0.379-0.198-0.786-0.46-1.206-0.718
											c-0.534,1.576-0.676,3.285-0.6,4.956C515.973,229.536,516.128,230.603,516.417,231.627z"/>
									</g>
								</g>
								<g>
									<path style="fill:#022A44;" d="M524.782,231.612c1.76-2.287,1.885-5.699,0.298-8.109
										C525.75,226.162,525.645,229.011,524.782,231.612z"/>
								</g>
							</g>
						</g>
					</g>
				</g>
			</g>
			<g>
				<g>
					<path style="fill:#F6EBE8;" d="M554.277,151.625c-3.026,2.334-6.123,4.975-7.277,8.618c-1.055,3.332-0.302,6.935,0.457,10.347
						c4.21,18.917,8.42,37.835,12.63,56.752c0.332,1.492,0.71,3.071,1.792,4.151c0.913,0.912,2.194,1.33,3.425,1.719
						c6.472,2.043,12.944,4.086,19.417,6.13c-0.746-32.441,1.556-66.44,4.858-98.721c0.248-2.423-0.746-4.365-1.98-6.32
						c-1.193-1.891-3.693-2.46-5.595-1.286C572.524,138.867,563.094,144.822,554.277,151.625z"/>
				</g>
				<g>
					<g>
						<path style="fill:#106887;" d="M579.988,139.722h-4.12c-1.1,0.689-2.192,1.391-3.287,2.088h7.407V139.722z"/>
					</g>
					<g>
						<path style="fill:#106887;" d="M579.988,191.694h-19.722v-2.32h19.722v-29.699h-3.944v14.617h-7.889v-20.186h-13.338
							c-2.76,2.138-5.552,4.56-6.604,7.881c-0.979,3.092-0.28,6.436,0.424,9.603c3.041,13.662,6.081,27.323,9.121,40.985h22.23
							V191.694z"/>
					</g>
					<g>
						<path style="fill:#106887;" d="M579.988,221.856h-20.165c0.178,0.802,0.357,1.603,0.535,2.405
							c0.308,1.385,0.659,2.85,1.663,3.852c0.544,0.543,1.232,0.888,1.954,1.168h16.013V221.856z"/>
					</g>
				</g>
				<g>
					<g>
						<path style="fill:#F7E094;" d="M586.27,133.013c-1.271-0.773-2.916-0.833-4.266,0.001c-2.004,1.237-4.004,2.482-5.998,3.735
							C579.41,135.456,582.832,134.212,586.27,133.013z"/>
					</g>
					<g>
						<path style="fill:#F7E094;" d="M547.477,170.68c13.628-5.33,27.15-10.938,40.775-16.273c0.064-0.7,0.121-1.407,0.185-2.106
							c-5.801,2.07-11.552,4.277-17.235,6.655c-8.015,3.354-16.118,6.547-24.093,10.015c0.112,0.543,0.228,1.084,0.347,1.619
							C547.464,170.62,547.47,170.65,547.477,170.68z"/>
					</g>
					<g>
						<path style="fill:#F7E094;" d="M586.158,181.258c0.126-1.954,0.251-3.909,0.388-5.86
							c-11.644,4.635-23.239,9.398-34.915,13.952c0.412,1.853,0.825,3.706,1.237,5.56
							C563.888,190.17,574.984,185.611,586.158,181.258z"/>
					</g>
					<g>
						<path style="fill:#F7E094;" d="M585.058,202.905c0.011-0.302,0.017-0.603,0.029-0.905
							c-9.405,3.747-18.752,7.644-28.041,11.678c0.051,0.23,0.102,0.46,0.154,0.69C566.408,210.367,575.693,206.539,585.058,202.905
							z"/>
					</g>
					<g>
						<path style="fill:#F7E094;" d="M569.278,230.408c3.306-1.641,6.641-3.219,9.977-4.793c-5.382,2.202-10.746,4.446-16.073,6.776
							c0.386,0.196,0.793,0.359,1.205,0.508C566.017,232.068,567.639,231.221,569.278,230.408z"/>
					</g>
				</g>
			</g>
		</g>
		<g>
			<g>
				<path style="fill:#022A44;" d="M638.516,273.017c-2.953,0.611-5.553,2.36-7.249,4.853c-10.077,14.817-19.847,30.28-23.108,47.82
					c-2.003,10.775-1.439,21.841-0.868,32.786c1.549,29.682,3.098,59.364,4.647,89.046c12.8,2.146,26.385,2.773,40.8,3.479
					c5.279-4.912,13.029-13.701,18.308-18.613c2.175-51.196-0.992-102.621,0.81-153.833c0.112-3.174-2.219-5.9-5.372-6.277
					C656.427,271.076,648.873,270.874,638.516,273.017z"/>
			</g>
			<g>
				<path style="fill:#F4EBE8;" d="M630.819,281.696c1.565-2.225,3.31-4.436,5.701-5.734c2.106-1.144,4.546-1.487,6.933-1.705
					c6.084-0.554,12.23-0.417,18.283,0.409c1.377,0.188,2.981,0.587,3.495,1.879c0.455,1.146-0.194,2.406-0.824,3.466
					c-5.237,8.815-10.473,17.631-15.71,26.447c-4.563,7.682-9.566,15.778-17.61,19.667c-2.829,1.368-6.025,2.149-9.133,1.685
					c-3.108-0.464-6.096-2.307-7.462-5.138c-2.048-4.244-0.121-9.246,1.808-13.545C620.543,299.672,624.859,290.172,630.819,281.696
					z"/>
			</g>
			<g>
				<path style="fill:#FAD34A;" d="M656.154,406.335c-5.748,0-10.25-12.445-10.25-28.334c0-15.888,4.502-28.333,10.25-28.333
					s10.25,12.445,10.25,28.333C666.404,393.89,661.902,406.335,656.154,406.335z M656.154,350.668
					c-5.014,0-9.25,12.517-9.25,27.333s4.236,27.334,9.25,27.334s9.25-12.518,9.25-27.334S661.168,350.668,656.154,350.668z"/>
			</g>
			<g>
				<polygon style="fill:#022A44;" points="617.571,318.668 621.238,323.668 630.905,319.835 				"/>
			</g>
		</g>
		<g>
			<g>
				<g>
					<path style="fill:#022A44;" d="M441.049,109.582c2.169-0.051,4.391-0.112,6.41-0.907c2.019-0.795,3.827-2.487,4.132-4.635
						c0.363-2.559-1.534-5.018-3.876-6.11s-5.029-1.109-7.611-1.007c-5.457,0.215-10.886,0.867-16.308,1.517
						c-2.752,0.33-5.65,0.717-7.856,2.396c-2.206,1.679-3.328,5.118-1.599,7.286c1.499,1.88,4.267,1.984,6.671,1.928
						C427.69,109.894,434.37,109.738,441.049,109.582z"/>
				</g>
				<g>
					<path style="fill:#E8BAA0;" d="M420.113,108.502c-2.274,0-4.125-1.795-4.125-4c0-2.206,1.851-4,4.125-4
						c2.274,0,4.125,1.794,4.125,4C424.238,106.707,422.388,108.502,420.113,108.502z M420.113,101.502
						c-1.723,0-3.125,1.346-3.125,3c0,1.654,1.402,3,3.125,3c1.723,0,3.125-1.346,3.125-3
						C423.238,102.847,421.836,101.502,420.113,101.502z"/>
				</g>
				<g>
					<path style="fill:#00A0B3;" d="M444.071,103.168c0,1.133-0.951,2.052-2.125,2.052c-1.174,0-2.125-0.919-2.125-2.052
						c0-1.133,0.951-2.052,2.125-2.052C443.12,101.116,444.071,102.035,444.071,103.168z"/>
				</g>
			</g>
			<g>
				<path style="fill:#022A44;" d="M439.967,108.643c-2.729,0.378-5.484,0.573-8.24,0.583c0.065,0.913,0.13,1.826,0.195,2.738
					c2.981-0.266,5.977-0.363,8.969-0.288C440.583,110.665,440.275,109.654,439.967,108.643z"/>
			</g>
		</g>
		<g>
			<g>
				<g>
					<rect x="36.009" y="144.103" style="fill:#00A0B3;" width="64.107" height="268.923"/>
				</g>
				<g>
					<rect x="46.009" y="144.103" style="fill:#FAD34A;" width="64.107" height="268.923"/>
				</g>
				<g>
					<g>
						<path style="fill:#F4EBE8;" d="M50.832,144.103h-4.823v2.205C47.615,145.57,49.223,144.835,50.832,144.103z"/>
					</g>
					<g>
						<path style="fill:#F4EBE8;" d="M107.186,144.103h-9.764c-17.234,7.482-34.409,15.088-51.412,23.051v4.406
							C66.43,162.472,86.841,153.36,107.186,144.103z"/>
					</g>
					<g>
						<path style="fill:#F4EBE8;" d="M110.116,203.616v-0.878c-18.921,9.96-37.734,20.143-56.265,30.808
							c-2.623,1.51-5.228,3.052-7.842,4.577v2.221C67.403,228.145,88.86,216.053,110.116,203.616z"/>
					</g>
					<g>
						<path style="fill:#F4EBE8;" d="M53.64,260.606c7.767-5.413,15.606-10.72,23.416-16.068
							c-10.352,5.896-20.71,11.781-31.047,17.704v3.724C48.55,264.175,51.09,262.384,53.64,260.606z"/>
					</g>
					<g>
						<path style="fill:#F4EBE8;" d="M57.239,311.172c14.98-10.914,30.467-21.156,45.319-32.236
							c2.533-1.889,5.047-3.803,7.558-5.723v-4.169c-21.848,15.676-43.233,31.982-64.107,48.932v1.464
							C49.739,316.664,53.482,313.909,57.239,311.172z"/>
					</g>
					<g>
						<path style="fill:#F4EBE8;" d="M63.568,335.674c10.035-9.007,20.064-18.022,30.062-27.069
							c-8.96,6.287-17.963,12.517-26.802,18.973c-6.992,5.108-13.933,10.284-20.82,15.528v8.351
							C51.857,346.189,57.712,340.931,63.568,335.674z"/>
					</g>
					<g>
						<path style="fill:#F4EBE8;" d="M106.896,413.026h3.22v-4.184C109.047,410.239,107.976,411.636,106.896,413.026z"/>
					</g>
					<g>
						<path style="fill:#F4EBE8;" d="M110.116,181.316v-17.785c-21.325,9.663-42.715,19.185-64.107,28.701v23.906
							C67.112,204.069,88.517,192.477,110.116,181.316z"/>
					</g>
				</g>
			</g>
			<g>
				<g>
					<rect x="34.738" y="186.626" style="fill:#022A44;" width="77" height="1.75"/>
				</g>
				<g>
					<rect x="34.738" y="264.376" style="fill:#022A44;" width="77" height="1.75"/>
				</g>
				<g>
					<rect x="34.738" y="342.126" style="fill:#022A44;" width="77" height="1.75"/>
				</g>
			</g>
		</g>
		<g>
			<g>
				<g>
					<path style="fill:#F7E094;" d="M237.631,160.968c3.914,2.805,5.351,7.909,6.091,12.667c0.74,4.758,1.124,9.799,3.791,13.809
						c7.326,11.016,29.438,5.9,37.221,16.599c4.429,6.088,3.438,7.097,3.338,14.625c-0.172,13-18.351,29.182-11.667,40.333
						c-31.92-7.261-43.778-15.527-69.92-35.23c-10.763-8.112-20.982-17.357-27.834-28.963c-3.026-5.126-5.402-11.26-3.63-16.942
						c1.542-4.943,5.917-8.468,10.456-10.959c11.925-6.543,25.952-7.902,39.546-8.363
						C229.382,158.396,234.086,158.427,237.631,160.968z"/>
				</g>
				<g>
					<path style="fill:#C1633A;" d="M235.298,163.968c3.914,2.805,5.351,7.909,6.091,12.667c0.74,4.758,1.124,9.799,3.791,13.809
						c7.326,11.016,29.438,5.9,37.221,16.599c4.429,6.088,3.438,7.097,3.338,14.625c-0.172,13-18.351,29.182-11.667,40.333
						c-31.92-7.261-43.778-15.527-69.92-35.23c-10.763-8.112-20.982-17.357-27.834-28.963c-3.026-5.126-5.402-11.26-3.63-16.942
						c1.542-4.943,5.917-8.468,10.456-10.959c11.925-6.543,25.952-7.902,39.546-8.363
						C227.049,161.396,231.752,161.427,235.298,163.968z"/>
				</g>
				<g>
					<g>
						<path style="fill:#C1633A;" d="M420.379,356.335c-52.734-2.157-105.607-0.881-158.176,3.817
							c5.642,8.213,15.232,13.032,25.002,14.99c9.77,1.958,19.847,1.377,29.794,0.787c18.027-1.069,36.053-2.138,54.08-3.207
							c8.887-0.527,17.842-1.065,26.454-3.324C406.145,367.139,414.494,363.014,420.379,356.335z"/>
					</g>
					<g>
						<path style="fill:#022A44;" d="M412.909,351.138c-52.734-2.157-105.607-0.881-158.176,3.817
							c5.642,8.213,15.232,13.032,25.002,14.99c9.77,1.958,19.847,1.377,29.794,0.787c18.027-1.069,36.053-2.138,54.08-3.207
							c8.887-0.527,17.842-1.065,26.454-3.324C398.674,361.943,407.023,357.818,412.909,351.138z"/>
					</g>
					<g>
						<path style="fill:#F4EBE8;" d="M426.237,321.82c-38.852-1.947-74.516-22.072-112.015-30.412
							c-34.165-2.644-75.708-2.303-110.778,5.801l-3.482,5.197c13.316,19.583,36.221,48.46,59.725,56.021
							c13.145,4.228,27.428,3.7,41.314,3.036c45.853-2.194,91.654-5.337,137.358-9.427
							C443.034,341.382,443.731,325.142,426.237,321.82z"/>
					</g>
					<g>
						<path style="fill:#00A0B3;" d="M430.237,326.82c-38.852-1.947-74.516-22.072-112.015-30.412
							c-34.165-2.644-75.708-2.303-110.778,5.801l-3.482,5.197c13.316,19.583,36.221,48.46,59.725,56.021
							c13.145,4.228,27.428,3.7,41.314,3.036c45.853-2.194,91.654-5.337,137.358-9.427
							C447.034,346.382,447.731,330.142,430.237,326.82z"/>
					</g>
					<g>
						<path style="fill:#106887;" d="M318.222,296.408c-34.165-2.644-75.708-2.303-110.778,5.801l-3.482,5.197
							c13.316,19.583,36.221,48.46,59.725,56.021c13.145,4.228,27.428,3.7,41.314,3.036c25.537-1.222,51.057-2.749,76.555-4.559
							c-2.02-18.841-3.497-38.004-16.437-50.884C349.561,305.551,334.055,299.929,318.222,296.408z"/>
					</g>
					<g>
						<path style="fill:#022A44;" d="M168.318,211.819c-1.606-6.987-3.074-14.329-1.19-21.247
							c2.361-8.671,9.808-15.299,18.171-18.589c8.363-3.29,17.581-3.667,26.559-3.259c6.268,0.285,12.921,1.089,17.792,5.044
							c6.423,5.216,7.886,14.208,10.315,22.118c5.812,18.922,19.244,34.701,34.6,47.192c15.355,12.491,32.763,22.155,49.467,32.777
							c11.894,7.563,23.648,15.805,32.396,26.856c8.748,11.052,14.235,25.385,11.937,39.292
							c-34.206,2.033-68.547,3.875-102.705,1.154c-16.222-1.292-33.09-3.892-46.293-13.406
							c-14.716-10.603-22.605-28.106-29.017-45.073C181.372,260.925,174.006,236.565,168.318,211.819z"/>
					</g>
				</g>
				<g>
					<path style="fill:#022A44;" d="M227.484,193.981c11.198,3.001,22.396,6.001,33.595,9.002c4.462,1.196,9.232,2.585,12.134,6.18
						c4.502,5.577,2.581,13.906-0.694,20.281c-3.275,6.375-7.796,12.562-7.993,19.726c-21.989-13.331-37.725-36.538-41.974-61.899
						L227.484,193.981z"/>
				</g>
				<g>
					<path style="fill:#FAD34A;" d="M359.065,342.83l-0.999-0.043c1.041-24.349-15.302-40.581-32.129-55.122
						c-9.632-8.321-20.424-15.518-30.861-22.48c-9.109-6.075-18.529-12.356-27.168-19.376c-3.629-2.949-7.359-6.594-7.509-11.269
						c-0.089-2.77,1.116-5.302,2.281-7.751c1.045-2.197,2.126-4.468,2.205-6.837c0.199-6.054-5.828-10.4-11.534-12.449
						c-1.39-0.499-2.852-0.951-4.267-1.387c-4.633-1.43-9.425-2.908-12.888-6.381c-2.478-2.485-3.963-5.706-5.398-8.821
						c-0.932-2.021-1.895-4.111-3.118-5.965c-5.149-7.813-15.905-12.245-27.396-11.29c-9.697,0.805-18.27,3.235-28.665,8.126
						l-0.426-0.905c10.51-4.944,19.186-7.402,29.008-8.218c11.855-0.98,22.966,3.623,28.314,11.736
						c1.264,1.917,2.243,4.042,3.19,6.097c1.464,3.175,2.846,6.174,5.199,8.533c3.288,3.296,7.958,4.738,12.475,6.131
						c1.425,0.439,2.898,0.894,4.31,1.401c6.038,2.168,12.413,6.833,12.195,13.423c-0.085,2.577-1.211,4.944-2.3,7.233
						c-1.165,2.449-2.266,4.763-2.186,7.29c0.137,4.272,3.687,7.718,7.141,10.524c8.603,6.99,18.002,13.259,27.092,19.32
						c10.462,6.978,21.281,14.192,30.96,22.556C343.603,301.609,360.125,318.036,359.065,342.83z"/>
				</g>
				<g>
					<path style="fill:#FAD34A;" d="M434.721,354.281L434.721,354.281c-0.979,0-1.916-0.238-2.713-0.691
						c-2.959-1.677-3.363-5.483-3.399-7.042c-0.1-4.273,1.489-8.541,4.36-11.709c1.272-1.405,2.502-2.089,3.757-2.089
						c1.719,0.008,3.309,1.329,4.376,3.625c1.346,2.893,1.853,6.227,1.429,9.389c-0.269,2.005-1.045,4.802-3.214,6.735
						C438.046,353.632,436.371,354.281,434.721,354.281z M436.736,333.751c-0.967,0-1.954,0.576-3.027,1.761
						c-2.7,2.98-4.194,6.994-4.101,11.014c0.032,1.389,0.379,4.771,2.893,6.196c0.655,0.371,1.402,0.56,2.22,0.56l0,0
						c1.388,0,2.856-0.571,3.93-1.527c1.941-1.73,2.643-4.284,2.89-6.122c0.398-2.975-0.079-6.112-1.345-8.834
						C439.77,335.885,438.583,333.759,436.736,333.751z"/>
				</g>
			</g>
			<g>
				<g>
					<path style="fill:#106887;" d="M325.238,338.501l-1.621,0.07C324.618,338.609,325.238,338.501,325.238,338.501z"/>
					<path style="fill:#106887;" d="M314.738,334.501c-5-5-27.5-35.5-28-37s-7-25.5-7-25.5l-1.438,28.276
						c-26.976,3.386-54.187,2.561-80.92-2.48l-0.186,0.982c16.069,3.031,32.306,4.548,48.565,4.548
						c10.836,0,21.682-0.684,32.489-2.033l-0.01,0.206l35.08,37.057c-34.319,1.893-64.279-0.512-91.458-7.374l-0.245,0.969
						c21.313,5.382,44.31,8.043,69.767,8.043c8.215,0,16.689-0.277,25.441-0.83l-0.031-0.497l6.825-0.297
						C321.618,338.497,318.071,337.834,314.738,334.501z"/>
				</g>
				<g>
					<g>
						<path style="fill:#A07A1C;" d="M255.534,216.596c-2.318-2.828-6.1-3.901-9.638-4.824c-3.002-0.783-6.298-1.544-9.108-0.229
							c-2.196,1.028-3.662,3.145-4.842,5.263c-3.802,6.824-5.728,14.681-5.512,22.49c0.122,4.428,1.346,9.453,5.274,11.502
							c4.331,2.259,9.632-0.279,13.334-3.466c5.217-4.492,8.464-10.819,10.697-17.331
							C257.306,225.43,258.598,220.333,255.534,216.596z"/>
					</g>
					<g>
						<path style="fill:#022A44;" d="M257.034,220.096c-2.318-2.828-6.1-3.901-9.638-4.824c-3.002-0.783-6.298-1.544-9.108-0.229
							c-2.196,1.028-3.662,3.145-4.842,5.263c-3.802,6.824-5.728,14.681-5.512,22.49c0.122,4.428,1.346,9.453,5.274,11.502
							c4.331,2.259,9.632-0.279,13.334-3.466c5.217-4.492,8.464-10.819,10.697-17.331
							C258.806,228.93,260.098,223.833,257.034,220.096z"/>
					</g>
				</g>
				<g>
					<path style="fill:#106887;" d="M220.947,250.226c-3.939-8.792-1.578-19.038,1.487-28.173
						c3.065-9.134,6.838-18.539,5.516-28.083c-0.455-3.283-1.564-6.564-3.746-9.06c-0.81-0.927-1.921-1.787-3.143-1.637
						c-2.061,0.254-2.676,2.907-2.786,4.981c-0.86,16.281-1.72,32.562-2.58,48.844c-0.134,2.545-0.263,5.145,0.435,7.596
						C216.828,247.146,218.515,249.465,220.947,250.226z"/>
				</g>
			</g>
		</g>
	</g>
</g>
</svg>
